<svg width="16" height="16" viewBox="0 0 16 16" fill="none" xmlns="http://www.w3.org/2000/svg">
<path d="M8 7.01334C7.72667 7.01334 7.5 6.78667 7.5 6.51334V4.29333C7.5 4.02 7.72667 3.79333 8 3.79333C8.27333 3.79333 8.5 4.02 8.5 4.29333V6.51334C8.5 6.79334 8.27333 7.01334 8 7.01334Z" fill="#8A99AA"/>
<path d="M8.01333 13.5667C6.29333 13.5667 4.57999 13.2933 2.94666 12.7467C2.33999 12.5467 1.87999 12.1133 1.67999 11.5667C1.47999 11.02 1.54666 10.3933 1.87333 9.84666L2.71999 8.43333C2.90666 8.11999 3.07333 7.53333 3.07333 7.16666V5.76666C3.07333 3.03999 5.28666 0.82666 8.01333 0.82666C10.74 0.82666 12.9533 3.03999 12.9533 5.76666V7.16666C12.9533 7.52666 13.12 8.11999 13.3067 8.43333L14.1533 9.84666C14.4667 10.3667 14.52 10.9867 14.3133 11.5533C14.1067 12.12 13.6533 12.5533 13.08 12.7467C11.4467 13.3 9.73333 13.5667 8.01333 13.5667ZM8.01333 1.83333C5.83999 1.83333 4.07333 3.59999 4.07333 5.77333V7.17333C4.07333 7.71333 3.85999 8.49333 3.57999 8.95333L2.73333 10.3733C2.55999 10.66 2.51999 10.9667 2.61999 11.2333C2.71999 11.5 2.94666 11.7 3.26666 11.8067C6.33333 12.8267 9.70666 12.8267 12.7733 11.8067C13.06 11.7133 13.28 11.5 13.38 11.22C13.4867 10.94 13.4533 10.6333 13.3 10.3733L12.4533 8.95999C12.1733 8.49999 11.96 7.71999 11.96 7.17999V5.77999C11.9533 3.59999 10.1867 1.83333 8.01333 1.83333Z" fill="#8A99AA"/>
<path d="M8.00003 15.2666C7.2867 15.2666 6.5867 14.9733 6.08003 14.4666C5.57336 13.96 5.28003 13.26 5.28003 12.5466H6.28003C6.28003 13 6.4667 13.44 6.7867 13.76C7.1067 14.08 7.5467 14.2666 8.00003 14.2666C8.9467 14.2666 9.72003 13.4933 9.72003 12.5466H10.72C10.72 14.0466 9.50003 15.2666 8.00003 15.2666Z" fill="#8A99AA"/>
</svg>
