<svg width="27" height="31" viewBox="0 0 27 31" fill="none" xmlns="http://www.w3.org/2000/svg">
<path d="M7.5 0.75C8.49609 0.75 9.375 1.62891 9.375 2.625V4.5H16.875V2.625C16.875 1.62891 17.6953 0.75 18.75 0.75C19.7461 0.75 20.625 1.62891 20.625 2.625V4.5H23.4375C24.9609 4.5 26.25 5.78906 26.25 7.3125V10.125H0V7.3125C0 5.78906 1.23047 4.5 2.8125 4.5H5.625V2.625C5.625 1.62891 6.44531 0.75 7.5 0.75ZM0 12H26.25V27.9375C26.25 29.5195 24.9609 30.75 23.4375 30.75H2.8125C1.23047 30.75 0 29.5195 0 27.9375V12ZM19.2773 18.6211C19.8047 18.0938 19.8047 17.2148 19.2773 16.6875C18.6914 16.1016 17.8125 16.1016 17.2852 16.6875L11.7188 22.2539L8.96484 19.5C8.37891 18.9141 7.5 18.9141 6.97266 19.5C6.38672 20.0273 6.38672 20.9062 6.97266 21.4336L10.7227 25.1836C11.25 25.7695 12.1289 25.7695 12.7148 25.1836L19.2773 18.6211Z" fill="#2662F0"/>
</svg>
