<svg width="14" height="11" viewBox="0 0 14 11" fill="none" xmlns="http://www.w3.org/2000/svg">
<path d="M13.9257 1.28873L13.3535 0.684696L12.7813 0.0806615C12.7579 0.0548693 12.7296 0.0343793 12.698 0.0205088C12.6665 0.00663831 12.6325 -0.000305747 12.5981 0.000123479C12.5637 -0.00100567 12.5295 0.00562065 12.4978 0.0195357C12.4662 0.0334507 12.4379 0.054316 12.415 0.0806615L4.48584 8.27889L1.59917 5.31751C1.57569 5.29224 1.54745 5.27213 1.51616 5.25838C1.48488 5.24464 1.4512 5.23756 1.41717 5.23756C1.38314 5.23756 1.34946 5.24464 1.31818 5.25838C1.28689 5.27213 1.25865 5.29224 1.23517 5.31751L0.077988 6.50464C0.0533006 6.52939 0.0336845 6.55896 0.0202918 6.5916C0.00689913 6.62424 0 6.6593 0 6.69471C0 6.73012 0.00689913 6.76518 0.0202918 6.79782C0.0336845 6.83046 0.0533006 6.86003 0.077988 6.88478L3.71858 10.6199C3.91593 10.841 4.18788 10.9769 4.4793 11C4.76522 10.9737 5.03262 10.8437 5.23348 10.6333H5.24002L13.9322 1.66941C13.977 1.61628 14.0012 1.54804 14 1.47778C13.9987 1.40753 13.9723 1.3402 13.9257 1.28873Z" fill="#53A653"/>
</svg>
