<svg width="16" height="16" viewBox="0 0 16 16" fill="none" xmlns="http://www.w3.org/2000/svg">
<path d="M7.99999 15.1667C4.04666 15.1667 0.833328 11.9533 0.833328 7.99999C0.833328 4.04666 4.04666 0.833328 7.99999 0.833328C11.9533 0.833328 15.1667 4.04666 15.1667 7.99999C15.1667 11.9533 11.9533 15.1667 7.99999 15.1667ZM7.99999 1.83333C4.59999 1.83333 1.83333 4.59999 1.83333 7.99999C1.83333 11.4 4.59999 14.1667 7.99999 14.1667C11.4 14.1667 14.1667 11.4 14.1667 7.99999C14.1667 4.59999 11.4 1.83333 7.99999 1.83333Z" fill="#121212"/>
<path d="M10.4733 10.62C10.3867 10.62 10.3 10.6 10.22 10.5467L8.15333 9.31333C7.63999 9.00667 7.25999 8.33333 7.25999 7.74V5.00667C7.25999 4.73333 7.48666 4.50667 7.75999 4.50667C8.03333 4.50667 8.25999 4.73333 8.25999 5.00667V7.74C8.25999 7.98 8.45999 8.33333 8.66666 8.45333L10.7333 9.68667C10.9733 9.82667 11.0467 10.1333 10.9067 10.3733C10.8067 10.5333 10.64 10.62 10.4733 10.62Z" fill="#121212"/>
</svg>
