<svg width="14" height="14" viewBox="0 0 14 14" fill="none" xmlns="http://www.w3.org/2000/svg">
<path d="M8.16675 9.42406L5.85675 7.11406M8.14341 7.1374L5.83341 9.4474M5.83341 3.4974H8.16675C9.33341 3.4974 9.33341 2.91406 9.33341 2.33073C9.33341 1.16406 8.75008 1.16406 8.16675 1.16406H5.83341C5.25008 1.16406 4.66675 1.16406 4.66675 2.33073C4.66675 3.4974 5.25008 3.4974 5.83341 3.4974Z" stroke="#EF233C" stroke-width="1.5" stroke-miterlimit="10" stroke-linecap="round" stroke-linejoin="round"/>
<path d="M9.33333 2.34375C11.2758 2.44875 12.25 3.16625 12.25 5.83208V9.33208C12.25 11.6654 11.6667 12.8321 8.75 12.8321H5.25C2.33333 12.8321 1.75 11.6654 1.75 9.33208V5.83208C1.75 3.17208 2.72417 2.44875 4.66667 2.34375" stroke="#EF233C" stroke-width="1.5" stroke-miterlimit="10" stroke-linecap="round" stroke-linejoin="round"/>
</svg>
