<svg width="16" height="16" viewBox="0 0 16 16" fill="none" xmlns="http://www.w3.org/2000/svg">
<path d="M12.6666 7.16671H11.3333C9.71998 7.16671 8.83331 6.28004 8.83331 4.66671V3.33337C8.83331 1.72004 9.71998 0.833374 11.3333 0.833374H12.6666C14.28 0.833374 15.1666 1.72004 15.1666 3.33337V4.66671C15.1666 6.28004 14.28 7.16671 12.6666 7.16671ZM11.3333 1.83337C10.28 1.83337 9.83331 2.28004 9.83331 3.33337V4.66671C9.83331 5.72004 10.28 6.16671 11.3333 6.16671H12.6666C13.72 6.16671 14.1666 5.72004 14.1666 4.66671V3.33337C14.1666 2.28004 13.72 1.83337 12.6666 1.83337H11.3333Z" fill="#8A99AA"/>
<path d="M4.66665 15.1667H3.33331C1.71998 15.1667 0.833313 14.28 0.833313 12.6667V11.3334C0.833313 9.72004 1.71998 8.83337 3.33331 8.83337H4.66665C6.27998 8.83337 7.16665 9.72004 7.16665 11.3334V12.6667C7.16665 14.28 6.27998 15.1667 4.66665 15.1667ZM3.33331 9.83337C2.27998 9.83337 1.83331 10.28 1.83331 11.3334V12.6667C1.83331 13.72 2.27998 14.1667 3.33331 14.1667H4.66665C5.71998 14.1667 6.16665 13.72 6.16665 12.6667V11.3334C6.16665 10.28 5.71998 9.83337 4.66665 9.83337H3.33331Z" fill="#8A99AA"/>
<path d="M3.99998 7.16671C2.25331 7.16671 0.833313 5.74671 0.833313 4.00004C0.833313 2.25337 2.25331 0.833374 3.99998 0.833374C5.74665 0.833374 7.16665 2.25337 7.16665 4.00004C7.16665 5.74671 5.74665 7.16671 3.99998 7.16671ZM3.99998 1.83337C2.80665 1.83337 1.83331 2.80671 1.83331 4.00004C1.83331 5.19337 2.80665 6.16671 3.99998 6.16671C5.19331 6.16671 6.16665 5.19337 6.16665 4.00004C6.16665 2.80671 5.19331 1.83337 3.99998 1.83337Z" fill="#8A99AA"/>
<path d="M12 15.1667C10.2533 15.1667 8.83331 13.7467 8.83331 12C8.83331 10.2534 10.2533 8.83337 12 8.83337C13.7466 8.83337 15.1666 10.2534 15.1666 12C15.1666 13.7467 13.7466 15.1667 12 15.1667ZM12 9.83337C10.8066 9.83337 9.83331 10.8067 9.83331 12C9.83331 13.1934 10.8066 14.1667 12 14.1667C13.1933 14.1667 14.1666 13.1934 14.1666 12C14.1666 10.8067 13.1933 9.83337 12 9.83337Z" fill="#8A99AA"/>
</svg>
