<svg width="16" height="16" viewBox="0 0 16 16" fill="none" xmlns="http://www.w3.org/2000/svg">
<path d="M7.99998 15.1666C7.57998 15.1666 7.18664 15.0067 6.89331 14.7067L5.87998 13.6933C5.79998 13.6133 5.58665 13.5267 5.47998 13.5267H4.03998C3.17331 13.5267 2.47331 12.8266 2.47331 11.9599V10.52C2.47331 10.4133 2.38664 10.2 2.30664 10.12L1.29331 9.10667C0.999981 8.81333 0.833313 8.41998 0.833313 7.99998C0.833313 7.57998 0.993315 7.18662 1.29331 6.89329L2.30664 5.87994C2.38664 5.79994 2.47331 5.58662 2.47331 5.47996V4.04002C2.47331 3.17335 3.17331 2.47328 4.03998 2.47328H5.47998C5.58665 2.47328 5.79998 2.38662 5.87998 2.30662L6.89331 1.29327C7.47998 0.706605 8.51998 0.706605 9.10665 1.29327L10.12 2.30662C10.2 2.38662 10.4133 2.47328 10.52 2.47328H11.96C12.8266 2.47328 13.5267 3.17335 13.5267 4.04002V5.47996C13.5267 5.58662 13.6133 5.79994 13.6933 5.87994L14.7066 6.89329C15 7.18662 15.1666 7.57998 15.1666 7.99998C15.1666 8.41998 15.0066 8.81333 14.7066 9.10667L13.6933 10.12C13.6133 10.2 13.5267 10.4133 13.5267 10.52V11.9599C13.5267 12.8266 12.8266 13.5267 11.96 13.5267H10.52C10.4133 13.5267 10.2 13.6133 10.12 13.6933L9.10665 14.7067C8.81332 15.0067 8.41998 15.1666 7.99998 15.1666ZM3.01331 9.41331C3.27997 9.67997 3.47331 10.1467 3.47331 10.52V11.9599C3.47331 12.2733 3.72664 12.5267 4.03998 12.5267H5.47998C5.85331 12.5267 6.31998 12.72 6.58665 12.9866L7.59998 14C7.81331 14.2133 8.18665 14.2133 8.39998 14L9.41331 12.9866C9.67998 12.72 10.1466 12.5267 10.52 12.5267H11.96C12.2733 12.5267 12.5267 12.2733 12.5267 11.9599V10.52C12.5267 10.1467 12.72 9.67997 12.9867 9.41331L14 8.39996C14.1066 8.29329 14.1666 8.15331 14.1666 7.99998C14.1666 7.84664 14.1066 7.70666 14 7.59999L12.9867 6.58665C12.72 6.31998 12.5267 5.85329 12.5267 5.47996V4.04002C12.5267 3.72668 12.2733 3.47328 11.96 3.47328H10.52C10.1466 3.47328 9.67998 3.27999 9.41331 3.01332L8.39998 1.99998C8.18665 1.78664 7.81331 1.78664 7.59998 1.99998L6.58665 3.01332C6.31998 3.27999 5.85331 3.47328 5.47998 3.47328H4.03998C3.72664 3.47328 3.47331 3.72668 3.47331 4.04002V5.47996C3.47331 5.85329 3.27997 6.31998 3.01331 6.58665L1.99998 7.59999C1.89331 7.70666 1.83331 7.84664 1.83331 7.99998C1.83331 8.15331 1.89331 8.29329 1.99998 8.39996L3.01331 9.41331Z" fill="#8A99AA"/>
<path d="M10.0002 10.6667C9.62685 10.6667 9.32684 10.3667 9.32684 10C9.32684 9.63337 9.62684 9.33337 9.99351 9.33337C10.3602 9.33337 10.6602 9.63337 10.6602 10C10.6602 10.3667 10.3668 10.6667 10.0002 10.6667Z" fill="#8A99AA"/>
<path d="M6.00665 6.66671C5.63332 6.66671 5.33331 6.36671 5.33331 6.00004C5.33331 5.63337 5.63331 5.33337 5.99998 5.33337C6.36665 5.33337 6.66665 5.63337 6.66665 6.00004C6.66665 6.36671 6.37332 6.66671 6.00665 6.66671Z" fill="#8A99AA"/>
<path d="M5.99998 10.4999C5.87331 10.4999 5.74665 10.4533 5.64665 10.3533C5.45331 10.16 5.45331 9.83992 5.64665 9.64659L9.64665 5.64659C9.83998 5.45325 10.16 5.45325 10.3533 5.64659C10.5466 5.83992 10.5466 6.15996 10.3533 6.35329L6.35331 10.3533C6.25331 10.4533 6.12665 10.4999 5.99998 10.4999Z" fill="#8A99AA"/>
</svg>
