<svg xmlns="http://www.w3.org/2000/svg" width="25" height="25.413" viewBox="0 0 25 25.413">
  <g id="Stethoscope" transform="translate(-36.742 -33.121)">
    <path id="Path_6" data-name="Path 6" d="M361.33,147.961a3.343,3.343,0,1,0,3.343,3.343,3.343,3.343,0,0,0-3.343-3.343Zm0,4.861a1.519,1.519,0,1,1,1.519-1.518,1.519,1.519,0,0,1-1.519,1.518Z" transform="translate(-302.931 -108.292)"/>
    <path id="Path_7" data-name="Path 7" d="M57.516,47.636v3.142a5.987,5.987,0,0,1-11.967.31,7.96,7.96,0,0,0,7.016-7.856V34.946a.884.884,0,0,0-.883-.883H49.734a1.824,1.824,0,1,0,0,1.766H50.8v7.4a6.146,6.146,0,1,1-12.292,0v-7.4h1.065a1.824,1.824,0,1,0,0-1.766H37.625a.884.884,0,0,0-.883.883v8.287a7.958,7.958,0,0,0,7.04,7.859,7.753,7.753,0,0,0,15.5-.313V47.636a4.583,4.583,0,0,1-1.766,0Z"/>
  </g>
</svg>
