<svg width="16" height="16" viewBox="0 0 16 16" fill="none" xmlns="http://www.w3.org/2000/svg">
<path d="M6.66 15.1667C6.52667 15.1667 6.42 15.14 6.34 15.1067C6.07333 15.0067 5.62 14.68 5.62 13.6467V9.34667H4.06C3.16667 9.34667 2.84667 8.92667 2.73333 8.68001C2.62 8.42667 2.52 7.91334 3.10667 7.24L8.15333 1.50667C8.83333 0.733338 9.38667 0.786671 9.65333 0.886671C9.92 0.986671 10.3733 1.31334 10.3733 2.34667V6.64667H11.9333C12.8267 6.64667 13.1467 7.06667 13.26 7.31334C13.3733 7.56667 13.4733 8.08 12.8867 8.75334L7.84 14.4867C7.36667 15.0267 6.95333 15.1667 6.66 15.1667ZM9.28667 1.82667C9.26667 1.85334 9.12667 1.92 8.90667 2.17334L3.86 7.90667C3.67333 8.12 3.64667 8.25334 3.64667 8.28C3.66 8.28667 3.78 8.35334 4.06 8.35334H6.12C6.39333 8.35334 6.62 8.58 6.62 8.85334V13.6533C6.62 13.9867 6.68 14.1333 6.70667 14.1733C6.72667 14.1467 6.86667 14.08 7.08667 13.8267L12.1333 8.09334C12.32 7.88 12.3467 7.74667 12.3467 7.72C12.3333 7.71334 12.2133 7.64667 11.9333 7.64667H9.87333C9.6 7.64667 9.37333 7.42 9.37333 7.14667V2.34667C9.38 2.01334 9.31333 1.87334 9.28667 1.82667Z" fill="#292D32"/>
</svg>
