<svg width="16" height="16" viewBox="0 0 16 16" fill="none" xmlns="http://www.w3.org/2000/svg">
<path d="M10.6666 15.1667H1.99998C1.35998 15.1667 0.833313 14.64 0.833313 14V5.33337C0.833313 2.38671 2.38665 0.833374 5.33331 0.833374H10.6666C13.6133 0.833374 15.1666 2.38671 15.1666 5.33337V10.6667C15.1666 13.6134 13.6133 15.1667 10.6666 15.1667ZM5.33331 1.83337C2.94665 1.83337 1.83331 2.94671 1.83331 5.33337V14C1.83331 14.0934 1.90665 14.1667 1.99998 14.1667H10.6666C13.0533 14.1667 14.1666 13.0534 14.1666 10.6667V5.33337C14.1666 2.94671 13.0533 1.83337 10.6666 1.83337H5.33331Z" fill="white"/>
<path d="M11.3334 6.83337H4.66669C4.39335 6.83337 4.16669 6.60671 4.16669 6.33337C4.16669 6.06004 4.39335 5.83337 4.66669 5.83337H11.3334C11.6067 5.83337 11.8334 6.06004 11.8334 6.33337C11.8334 6.60671 11.6067 6.83337 11.3334 6.83337Z" fill="white"/>
<path d="M9.33335 10.1666H4.66669C4.39335 10.1666 4.16669 9.93996 4.16669 9.66663C4.16669 9.39329 4.39335 9.16663 4.66669 9.16663H9.33335C9.60669 9.16663 9.83335 9.39329 9.83335 9.66663C9.83335 9.93996 9.60669 10.1666 9.33335 10.1666Z" fill="white"/>
</svg>
