<svg width="20" height="40" viewBox="0 0 20 40" fill="none" xmlns="http://www.w3.org/2000/svg">
<path d="M0 3.75C0 1.71875 1.64062 0 3.75 0H16.25C18.2812 0 20 1.71875 20 3.75V7.5H13.75C13.0469 7.5 12.5 8.125 12.5 8.75C12.5 9.45312 13.0469 10 13.75 10H20V15H13.75C13.0469 15 12.5 15.625 12.5 16.25C12.5 16.9531 13.0469 17.5 13.75 17.5H20V22.5H13.75C13.0469 22.5 12.5 23.125 12.5 23.75C12.5 24.4531 13.0469 25 13.75 25H20V30H13.75C13.0469 30 12.5 30.625 12.5 31.25C12.5 31.9531 13.0469 32.5 13.75 32.5H20V36.25C20 38.3594 18.2812 40 16.25 40H3.75C1.64062 40 0 38.3594 0 36.25V3.75Z" fill="white"/>
</svg>
