<svg width="16" height="16" viewBox="0 0 16 16" fill="none" xmlns="http://www.w3.org/2000/svg">
<path d="M11.7466 6.41333H8.24664C7.97331 6.41333 7.74664 6.18666 7.74664 5.91333C7.74664 5.64 7.97331 5.41333 8.24664 5.41333H11.7466C12.02 5.41333 12.2466 5.64 12.2466 5.91333C12.2466 6.18666 12.0266 6.41333 11.7466 6.41333Z" fill="#8A99AA"/>
<path d="M4.74669 6.91996C4.62002 6.91996 4.49335 6.8733 4.39335 6.7733L3.89335 6.2733C3.70002 6.07996 3.70002 5.75996 3.89335 5.56663C4.08669 5.3733 4.40669 5.3733 4.60002 5.56663L4.74669 5.7133L5.89335 4.56663C6.08669 4.3733 6.40669 4.3733 6.60002 4.56663C6.79335 4.75996 6.79335 5.07996 6.60002 5.2733L5.10002 6.7733C5.00669 6.86663 4.88002 6.91996 4.74669 6.91996Z" fill="#8A99AA"/>
<path d="M11.7466 11.08H8.24664C7.97331 11.08 7.74664 10.8533 7.74664 10.58C7.74664 10.3066 7.97331 10.08 8.24664 10.08H11.7466C12.02 10.08 12.2466 10.3066 12.2466 10.58C12.2466 10.8533 12.0266 11.08 11.7466 11.08Z" fill="#8A99AA"/>
<path d="M4.74669 11.5867C4.62002 11.5867 4.49335 11.54 4.39335 11.44L3.89335 10.94C3.70002 10.7467 3.70002 10.4267 3.89335 10.2334C4.08669 10.04 4.40669 10.04 4.60002 10.2334L4.74669 10.38L5.89335 9.23338C6.08669 9.04005 6.40669 9.04005 6.60002 9.23338C6.79335 9.42671 6.79335 9.74671 6.60002 9.94005L5.10002 11.44C5.00669 11.5334 4.88002 11.5867 4.74669 11.5867Z" fill="#8A99AA"/>
<path d="M9.99998 15.1667H5.99998C2.37998 15.1667 0.833313 13.62 0.833313 10V6.00004C0.833313 2.38004 2.37998 0.833374 5.99998 0.833374H9.99998C13.62 0.833374 15.1666 2.38004 15.1666 6.00004V10C15.1666 13.62 13.62 15.1667 9.99998 15.1667ZM5.99998 1.83337C2.92665 1.83337 1.83331 2.92671 1.83331 6.00004V10C1.83331 13.0734 2.92665 14.1667 5.99998 14.1667H9.99998C13.0733 14.1667 14.1666 13.0734 14.1666 10V6.00004C14.1666 2.92671 13.0733 1.83337 9.99998 1.83337H5.99998Z" fill="#8A99AA"/>
</svg>
