<svg width="32" height="32" viewBox="0 0 32 32" fill="none" xmlns="http://www.w3.org/2000/svg">
<circle cx="16" cy="16" r="16" fill="#F6F6F6"/>
<rect width="16" height="16" transform="translate(8 8)" fill="#F6F6F6"/>
<path d="M16 23.1667C12.0466 23.1667 8.83331 19.9533 8.83331 16C8.83331 12.0467 12.0466 8.83334 16 8.83334C19.9533 8.83334 23.1666 12.0467 23.1666 16C23.1666 19.9533 19.9533 23.1667 16 23.1667ZM16 9.83334C12.6 9.83334 9.83331 12.6 9.83331 16C9.83331 19.4 12.6 22.1667 16 22.1667C19.4 22.1667 22.1666 19.4 22.1666 16C22.1666 12.6 19.4 9.83334 16 9.83334Z" fill="#121212"/>
<path d="M16 17.1667C15.7267 17.1667 15.5 16.94 15.5 16.6667V13.3333C15.5 13.06 15.7267 12.8333 16 12.8333C16.2733 12.8333 16.5 13.06 16.5 13.3333V16.6667C16.5 16.94 16.2733 17.1667 16 17.1667Z" fill="#121212"/>
<path d="M16 19.3333C15.9133 19.3333 15.8266 19.3133 15.7466 19.28C15.6666 19.2467 15.5933 19.2 15.5266 19.14C15.4666 19.0733 15.42 19.0067 15.3866 18.92C15.3533 18.84 15.3333 18.7533 15.3333 18.6667C15.3333 18.58 15.3533 18.4933 15.3866 18.4133C15.42 18.3333 15.4666 18.26 15.5266 18.1933C15.5933 18.1333 15.6666 18.0867 15.7466 18.0533C15.9066 17.9867 16.0933 17.9867 16.2533 18.0533C16.3333 18.0867 16.4066 18.1333 16.4733 18.1933C16.5333 18.26 16.58 18.3333 16.6133 18.4133C16.6466 18.4933 16.6666 18.58 16.6666 18.6667C16.6666 18.7533 16.6466 18.84 16.6133 18.92C16.58 19.0067 16.5333 19.0733 16.4733 19.14C16.4066 19.2 16.3333 19.2467 16.2533 19.28C16.1733 19.3133 16.0866 19.3333 16 19.3333Z" fill="#121212"/>
</svg>
