<svg width="16" height="16" viewBox="0 0 16 16" fill="none" xmlns="http://www.w3.org/2000/svg">
<path d="M7.99998 15.1667C4.04665 15.1667 0.833313 11.9534 0.833313 8.00004C0.833313 6.42671 1.33331 4.93337 2.27998 3.68004C2.44665 3.46004 2.75998 3.42004 2.97998 3.58671C3.19998 3.75337 3.24665 4.06671 3.07998 4.28671C2.26665 5.36004 1.83331 6.64671 1.83331 8.00004C1.83331 11.4 4.59998 14.1667 7.99998 14.1667C11.4 14.1667 14.1666 11.4 14.1666 8.00004C14.1666 4.60004 11.4 1.83337 7.99998 1.83337C7.72665 1.83337 7.49998 1.60671 7.49998 1.33337C7.49998 1.06004 7.72665 0.833374 7.99998 0.833374C11.9533 0.833374 15.1666 4.04671 15.1666 8.00004C15.1666 11.9534 11.9533 15.1667 7.99998 15.1667Z" fill="#8A99AA"/>
<path d="M7.99998 13.1667C5.15331 13.1667 2.83331 10.8467 2.83331 8.00004C2.83331 7.72671 3.05998 7.50004 3.33331 7.50004C3.60665 7.50004 3.83331 7.72671 3.83331 8.00004C3.83331 10.3 5.69998 12.1667 7.99998 12.1667C10.3 12.1667 12.1666 10.3 12.1666 8.00004C12.1666 5.70004 10.3 3.83337 7.99998 3.83337C7.72665 3.83337 7.49998 3.60671 7.49998 3.33337C7.49998 3.06004 7.72665 2.83337 7.99998 2.83337C10.8466 2.83337 13.1666 5.15337 13.1666 8.00004C13.1666 10.8467 10.8466 13.1667 7.99998 13.1667Z" fill="#8A99AA"/>
<path d="M8 11.1667C7.72667 11.1667 7.5 10.94 7.5 10.6667C7.5 10.3934 7.72667 10.1667 8 10.1667C9.19333 10.1667 10.1667 9.19337 10.1667 8.00004C10.1667 6.80671 9.19333 5.83337 8 5.83337C7.72667 5.83337 7.5 5.60671 7.5 5.33337C7.5 5.06004 7.72667 4.83337 8 4.83337C9.74667 4.83337 11.1667 6.25337 11.1667 8.00004C11.1667 9.74671 9.74667 11.1667 8 11.1667Z" fill="#8A99AA"/>
</svg>
