<svg width="15" height="13" viewBox="0 0 15 13" fill="none" xmlns="http://www.w3.org/2000/svg">
<path d="M1.38281 6.24219L4.05469 3.59375C5.36719 2.28125 7.5 2.28125 8.8125 3.59375C10.0781 4.83594 10.1484 6.85156 8.97656 8.1875L8.83594 8.32812L7.99219 7.60156L8.13281 7.46094C8.90625 6.57031 8.85938 5.23438 8.01562 4.39062C7.14844 3.5 5.71875 3.5 4.85156 4.39062L2.17969 7.03906C1.3125 7.92969 1.3125 9.33594 2.17969 10.2266C3.02344 11.0469 4.35938 11.0938 5.25 10.3203L5.39062 10.2031L6.14062 11.0469L6 11.1641C4.66406 12.3359 2.64844 12.2656 1.38281 11.0234C0.0703125 9.71094 0.0703125 7.55469 1.38281 6.24219ZM13.5938 6.78125L10.9453 9.42969C9.60938 10.7422 7.47656 10.7422 6.16406 9.42969C4.92188 8.16406 4.85156 6.17188 6.02344 4.83594L6.11719 4.69531L6.96094 5.44531L6.86719 5.5625C6.07031 6.45312 6.11719 7.78906 6.96094 8.63281C7.82812 9.5 9.25781 9.5 10.1484 8.63281L12.7969 5.98438C13.6641 5.09375 13.6641 3.6875 12.7969 2.79688C11.9531 1.95312 10.6172 1.92969 9.72656 2.70312L9.58594 2.82031L8.83594 1.97656L8.97656 1.85938C10.3125 0.6875 12.3281 0.757812 13.5938 2C14.9062 3.3125 14.9062 5.44531 13.5938 6.78125Z" fill="#636D73"/>
</svg>
