<svg width="10" height="14" viewBox="0 0 10 14" fill="none" xmlns="http://www.w3.org/2000/svg">
<path d="M5.45898 13.3203C5.1543 13.7012 4.57031 13.7012 4.26562 13.3203C2.9707 11.6699 0 7.73438 0 5.5C0 2.80859 2.18359 0.625 4.875 0.625C7.56641 0.625 9.75 2.80859 9.75 5.5C9.75 7.73438 6.7793 11.6699 5.45898 13.3203ZM3.25 3.875C2.79297 3.875 2.4375 4.25586 2.4375 4.6875C2.4375 5.14453 2.79297 5.5 3.25 5.5C3.68164 5.5 4.0625 5.14453 4.0625 4.6875C4.0625 4.25586 3.68164 3.875 3.25 3.875ZM5.6875 4.6875C5.6875 5.14453 6.04297 5.5 6.5 5.5C6.93164 5.5 7.3125 5.14453 7.3125 4.6875C7.3125 4.25586 6.93164 3.875 6.5 3.875C6.04297 3.875 5.6875 4.25586 5.6875 4.6875ZM3.25 6.8457C3.09766 6.61719 2.79297 6.56641 2.53906 6.71875C2.31055 6.87109 2.25977 7.17578 2.41211 7.42969C2.69141 7.86133 3.55469 8.64844 4.875 8.64844C6.16992 8.64844 7.0332 7.86133 7.3125 7.42969C7.46484 7.17578 7.41406 6.87109 7.18555 6.71875C6.93164 6.56641 6.62695 6.61719 6.47461 6.8457C6.32227 7.09961 5.73828 7.63281 4.875 7.63281C3.98633 7.63281 3.40234 7.09961 3.25 6.8457Z" fill="#2662F0"/>
</svg>
