<svg width="74" height="96" viewBox="0 0 74 96" fill="none" xmlns="http://www.w3.org/2000/svg">
<g clip-path="url(#clip0_9_1459)">
<path d="M24.4453 0H27.9277C30.7402 0.322481 33.3858 1.21922 35.8645 2.69023C35.8822 2.70062 35.8969 2.71544 35.9075 2.73331C35.918 2.75118 35.9239 2.7715 35.9246 2.79235C35.9253 2.8132 35.9208 2.8339 35.9116 2.85249C35.9024 2.87109 35.8887 2.88695 35.8718 2.8986C29.5564 7.41209 26.3171 14.9284 27.7608 22.7312C28.7233 27.938 31.4209 32.1302 35.8536 35.3079C35.887 35.3316 35.9137 35.3638 35.9314 35.4013C35.9491 35.4387 35.957 35.4802 35.9544 35.5218C35.9519 35.5633 35.9389 35.6034 35.9168 35.6383C35.8947 35.6732 35.8642 35.7017 35.8283 35.7209C29.6301 39.1169 23.6001 39.3153 17.7382 36.3163C7.26933 30.9581 4.28394 17.053 11.3284 7.50884C14.4964 3.21488 18.8687 0.711938 24.4453 0Z" fill="#5597F5"/>
<path d="M36.6154 4.93394C46.3769 -3.40094 60.9338 0.189756 65.9034 12.2716C67.3641 15.8263 67.7002 19.6663 66.9119 23.7916C66.878 23.9628 66.7934 23.9963 66.658 23.8921C63.1853 21.2254 59.4575 19.8722 55.4745 19.8325C49.0612 19.7681 43.8764 22.3206 39.92 27.4902C38.4497 29.4102 37.3881 31.6663 36.7351 34.2586C36.7322 34.2707 36.7262 34.2818 36.7178 34.2908C36.7093 34.2999 36.6987 34.3065 36.6868 34.3102C36.6748 34.3139 36.6621 34.3146 36.6496 34.312C36.6371 34.3095 36.6254 34.3039 36.6154 34.2958C32.8114 30.8552 30.6374 26.6667 30.0933 21.7302C29.3932 15.3786 31.8743 8.97859 36.6154 4.93394ZM61.4127 6.60836C57.096 2.10232 50.6282 0.104175 44.6502 1.56278C30.7244 4.95627 25.9398 22.4558 36.0713 32.8595C36.1025 32.8909 36.1412 32.9134 36.1834 32.925C36.2256 32.9365 36.2701 32.9367 36.3124 32.9254C36.3547 32.9142 36.3935 32.892 36.4249 32.8609C36.4564 32.8298 36.4796 32.7909 36.4921 32.7479C37.1257 30.565 38.1909 28.537 39.6879 26.6642C43.7022 21.6459 48.8677 19.138 55.1843 19.1405C59.2181 19.1405 62.8781 20.3212 66.1646 22.6828C66.1906 22.7016 66.221 22.7133 66.2527 22.7166C66.2844 22.7199 66.3164 22.7148 66.3455 22.7017C66.3747 22.6886 66.4001 22.668 66.4193 22.6418C66.4384 22.6157 66.4507 22.585 66.4548 22.5525C67.2238 16.2294 65.5431 10.9147 61.4127 6.60836Z" fill="#151D28"/>
<path d="M73.9999 41.0642V42.3181C73.6952 47.2769 71.9927 51.4456 68.8925 54.8242C65.8164 58.173 61.5977 60.346 57.2556 60.8074C56.9799 60.8372 56.8868 60.7169 56.9763 60.4465C61.3329 47.3265 51.5968 33.853 38.0809 34.6419C38.063 34.6432 38.045 34.6399 38.0287 34.6322C38.0124 34.6244 37.9983 34.6125 37.9877 34.5976C37.9772 34.5827 37.9705 34.5652 37.9684 34.5469C37.9663 34.5286 37.9688 34.51 37.9757 34.493C42.4665 23.133 56.0622 18.8279 65.9796 25.9646C70.8283 29.4549 73.5017 34.4881 73.9999 41.0642ZM72.8645 37.7079C70.5502 26.8093 59.4321 20.5321 49.2389 24.2642C44.8231 25.8815 41.4182 29.0034 39.024 33.6298C39.0097 33.6575 39.0025 33.6885 39.0033 33.7199C39.004 33.7513 39.0127 33.7819 39.0284 33.8088C39.0441 33.8358 39.0663 33.8581 39.0928 33.8737C39.1194 33.8892 39.1494 33.8975 39.18 33.8977C52.3658 33.9981 61.5033 46.7349 57.9557 59.6651C57.9456 59.7025 57.9451 59.742 57.9541 59.7797C57.9632 59.8174 57.9815 59.8521 58.0073 59.8805C58.0331 59.9088 58.0656 59.9299 58.1017 59.9417C58.1378 59.9535 58.1762 59.9557 58.2132 59.9479C68.3556 57.9609 75.0918 48.2158 72.8645 37.7079Z" fill="#151D28"/>
<path d="M36.1693 47.8772C34.7933 51.479 32.6604 54.3392 29.7705 56.4576C24.5688 60.2679 18.9196 61.1733 12.8231 59.1739C5.48837 56.7702 0.42082 49.6409 0.0870946 41.5999C-0.155945 35.8437 2.31435 30.3181 6.52219 26.4409C6.62134 26.3491 6.69026 26.3689 6.72896 26.5004C8.49915 32.3944 12.0444 36.5866 17.3646 39.0772C23.7671 42.0799 31.1453 40.986 36.6953 36.6027C36.838 36.4911 36.9287 36.5258 36.9674 36.7069C37.8017 40.5891 37.5357 44.3125 36.1693 47.8772ZM17.4553 39.8511C12.0891 37.5168 8.41814 33.492 6.44239 27.7767C6.4345 27.7537 6.4211 27.7331 6.40342 27.7168C6.38574 27.7006 6.36435 27.6891 6.34121 27.6836C6.31808 27.678 6.29396 27.6785 6.27106 27.685C6.24817 27.6915 6.22725 27.7039 6.21023 27.7209C1.17896 32.7776 -0.525945 40.2455 1.75209 47.0325C4.32033 54.6939 11.5789 59.8251 19.5048 59.4418C30.2203 58.9246 38.2914 48.8744 36.5212 37.9348C36.4898 37.7339 36.3918 37.6905 36.2274 37.8046C30.5758 41.7451 23.7344 42.5823 17.4553 39.8511Z" fill="#151D28"/>
<path d="M20.0053 62.5898C33.5502 62.7758 42.9235 49.3209 38.128 36.0707C38.1215 36.0511 38.1197 36.0301 38.1229 36.0097C38.126 35.9892 38.1341 35.9699 38.1463 35.9533C38.1584 35.9368 38.1744 35.9236 38.1927 35.9148C38.211 35.9061 38.2312 35.9021 38.2514 35.9033C43.9319 36.3312 49.1917 39.36 52.3621 44.2121C61.5614 58.2661 50.2437 76.5842 33.9528 74.0056C27.7064 73.0195 22.4683 68.7033 19.8638 62.8093C19.8535 62.7853 19.8492 62.7591 19.8513 62.733C19.8534 62.7069 19.8619 62.6817 19.876 62.6599C19.8901 62.638 19.9093 62.6201 19.9319 62.6079C19.9545 62.5956 19.9797 62.5894 20.0053 62.5898ZM54.8397 57.0977C55.4128 51.1541 53.6305 46.0478 49.4928 41.7786C46.9077 39.1095 43.5353 37.4115 39.3759 36.6847C39.1631 36.6474 39.0881 36.7343 39.151 36.9451C42.9417 49.9051 34.457 62.6605 21.1334 63.3265C20.9714 63.3364 20.9279 63.4146 21.0028 63.5609C25.3957 72.3014 35.9878 76.1712 44.7046 71.7433C50.2945 68.9042 54.2266 63.4567 54.8397 57.0977Z" fill="#151D28"/>
<path d="M59.7694 80.7442L60.2591 81.2391C60.2868 81.2652 60.305 81.3002 60.3109 81.3383C60.3167 81.3764 60.3099 81.4154 60.2914 81.449C60.2729 81.4826 60.2439 81.5088 60.2091 81.5234C60.1743 81.538 60.1356 81.54 60.0995 81.5293L59.4321 81.3432C59.4036 81.3353 59.3735 81.3353 59.345 81.3432L58.6812 81.533C58.6455 81.5436 58.6074 81.5416 58.573 81.5275C58.5385 81.5133 58.5096 81.4878 58.4909 81.4549C58.4721 81.422 58.4646 81.3837 58.4695 81.3459C58.4744 81.3082 58.4915 81.2732 58.518 81.2465L59.0077 80.7479C59.0287 80.7263 59.0437 80.6993 59.0512 80.6698L59.2253 79.9851C59.2347 79.9485 59.2556 79.9161 59.2848 79.893C59.314 79.8698 59.3498 79.8573 59.3867 79.8573C59.4236 79.8573 59.4595 79.8698 59.4887 79.893C59.5179 79.9161 59.5388 79.9485 59.5482 79.9851L59.7259 80.666C59.7334 80.6956 59.7484 80.7226 59.7694 80.7442Z" fill="#151D28"/>
<path d="M20.0672 81.0246C20.3135 81.1236 20.5879 81.0084 20.68 80.7673C20.7721 80.5262 20.6471 80.2505 20.4008 80.1515C20.1545 80.0524 19.8801 80.1676 19.788 80.4087C19.6959 80.6498 19.8209 80.9255 20.0672 81.0246Z" fill="#151D28"/>
<path d="M54.6151 80.1414L54.8837 80.3126C54.941 80.349 54.9869 80.4015 55.016 80.4639C55.045 80.5262 55.056 80.5959 55.0476 80.6644C55.0392 80.733 55.0117 80.7977 54.9685 80.8507C54.9253 80.9038 54.8681 80.943 54.8038 80.9638C54.574 81.0357 54.3683 80.9749 54.1868 80.7814C54.1409 80.7328 54.1147 80.6682 54.1133 80.6006C54.112 80.5329 54.1357 80.4673 54.1796 80.4168L54.3901 80.1749C54.4175 80.1437 54.4549 80.1233 54.496 80.1172C54.537 80.111 54.5791 80.1196 54.6151 80.1414Z" fill="#151D28"/>
<path d="M10.048 84.5693C11.0201 84.5842 11.9125 84.3411 12.725 83.84C12.7465 83.8268 12.7647 83.8086 12.7783 83.787C12.7918 83.7654 12.8003 83.7408 12.8031 83.7153C12.8059 83.6897 12.8029 83.6639 12.7944 83.6397C12.7859 83.6155 12.7721 83.5937 12.754 83.5758C12.2825 83.112 11.7105 82.8949 11.0383 82.9247C11.0122 82.9262 10.9862 82.9223 10.9616 82.9134C10.9371 82.9044 10.9145 82.8905 10.8952 82.8725C10.876 82.8545 10.8604 82.8327 10.8495 82.8084C10.8385 82.7842 10.8324 82.7579 10.8315 82.7312L10.817 82.441C10.8121 82.2921 10.8811 82.2053 11.0237 82.1805C11.9524 82.0168 13.2945 82.8503 14.0128 83.4717C14.0641 83.5155 14.1002 83.5753 14.1159 83.6423C14.1316 83.7093 14.1259 83.7799 14.0998 83.8437C14.0273 84.0273 13.9039 84.1699 13.7298 84.2716C11.8472 85.3768 10.1786 85.481 7.91139 85.2168C7.12424 85.1237 6.51845 85.4549 5.76032 85.1833C5.64907 85.1436 5.53541 85.1361 5.41933 85.161L4.11708 85.4251C4.07369 85.4342 4.03316 85.4538 3.99902 85.4824C3.96488 85.5109 3.93816 85.5474 3.9212 85.5889C3.53427 86.5712 2.82571 86.9606 1.79551 86.7572C0.377179 86.4744 0.464238 84.9265 0.631101 83.8289C0.63824 83.7831 0.660304 83.7411 0.693806 83.7094C0.727308 83.6777 0.770339 83.6582 0.816101 83.654C1.14257 83.6217 1.31911 83.7606 1.34571 84.0707C1.37231 84.3957 1.38803 84.7244 1.39287 85.0568C1.3977 85.6844 1.70604 85.9845 2.31787 85.9572C2.81845 85.9324 3.08084 85.6682 3.10502 85.1647C3.17757 83.6937 3.20417 82.2685 3.18483 80.8893C3.18241 80.733 3.25737 80.6561 3.40973 80.6586C3.46051 80.6586 3.51009 80.6636 3.55845 80.6735C3.65946 80.6951 3.74925 80.7536 3.81078 80.838C3.87231 80.9223 3.90127 81.0267 3.89218 81.1312C3.79545 82.2698 3.82205 83.3191 3.97198 84.2791C4.00826 84.5098 4.13764 84.6028 4.36012 84.5582L4.78453 84.4689C4.99251 84.4242 5.09166 84.294 5.08198 84.0782C5.06505 83.6614 5.0844 83.2285 5.14002 82.7796C5.15453 82.653 5.20652 82.5501 5.296 82.4707C5.39273 82.3864 5.50277 82.3641 5.6261 82.4037C5.7712 82.4534 5.84979 82.5551 5.86188 82.7089L5.9562 84.0298C5.98038 84.3548 6.15087 84.5234 6.46767 84.5358L6.59463 84.5396C6.94045 84.5495 7.10973 84.3771 7.10247 84.0223C7.08071 83.0847 7.19316 81.9237 8.40835 81.8903C9.98992 81.8456 9.921 83.1591 9.81218 84.294C9.79283 84.4751 9.87143 84.5668 10.048 84.5693ZM8.71306 84.5396C8.82914 84.5966 8.9162 84.5768 8.97424 84.48C9.02018 84.4081 9.04074 84.3312 9.0359 84.2493C9.02381 83.8971 9.01293 83.5523 9.00326 83.2149C8.996 83.0512 8.93313 82.911 8.81463 82.7944C8.69613 82.6778 8.55708 82.6258 8.39747 82.6382C8.27898 82.6481 8.19554 82.7089 8.14718 82.8205C7.95855 83.2819 7.91502 83.7346 8.01659 84.1786C8.07705 84.4465 8.25721 84.5594 8.55708 84.5172C8.60938 84.5099 8.66331 84.5176 8.71306 84.5396Z" fill="#151D28"/>
<path d="M25.831 83.4233C26.8539 82.1954 29.3025 81.7972 29.005 84.2084C28.9639 84.5408 29.0969 84.6512 29.404 84.5396L29.589 84.4726C29.8575 84.3734 29.9917 84.1762 29.9917 83.881V80.7554C29.9917 80.6834 30.0268 80.6475 30.0969 80.6475L30.6591 80.6549C30.7801 80.6574 30.8405 80.7207 30.8405 80.8447L30.855 84.1005C30.8549 84.1969 30.8885 84.2901 30.9497 84.3632C31.011 84.4363 31.0958 84.4844 31.1887 84.4986C31.2685 84.5135 31.3447 84.5148 31.4173 84.5024C31.7365 84.4552 31.8949 84.2667 31.8925 83.9368L31.8888 80.8484C31.8888 80.7095 31.9566 80.6425 32.092 80.6475L32.6216 80.6624C32.7135 80.6648 32.7594 80.7144 32.7594 80.8112L32.7522 84.2531C32.7522 84.3944 32.7111 84.5234 32.6288 84.64C32.0775 85.4289 31.4028 85.5913 30.6047 85.1275C30.4959 85.063 30.3871 85.063 30.2783 85.1275C30.0026 85.2912 29.7196 85.3842 29.4004 85.3879C27.6399 85.3954 25.8673 85.3954 24.0826 85.3879C23.935 85.3879 23.7972 85.3507 23.669 85.2763C23.3522 85.0853 23.033 85.0766 22.7114 85.2503C22.5856 85.3197 22.4514 85.3569 22.3087 85.3619C21.2108 85.3917 20.0706 85.3892 18.8881 85.3544C17.7998 85.3247 16.8204 85.3619 16.6499 84.1675C16.6136 83.9045 16.7176 83.7445 16.9619 83.6875C17.0293 83.6717 17.0999 83.6796 17.1624 83.71C17.2249 83.7404 17.2757 83.7914 17.3065 83.8549C17.587 84.4552 18.0707 84.6896 18.7575 84.5582C18.9122 84.5284 18.9703 84.4354 18.9316 84.2791C18.6595 83.1777 19.0404 81.8344 20.3535 81.8605C21.6485 81.8903 21.7066 83.2372 21.5905 84.1861C21.5851 84.2326 21.5901 84.2798 21.6051 84.324C21.62 84.3681 21.6446 84.4082 21.6769 84.4409C21.7092 84.4737 21.7483 84.4982 21.7912 84.5128C21.834 84.5273 21.8796 84.5314 21.9242 84.5247L22.2942 84.4689C22.4219 84.4501 22.5387 84.3845 22.6233 84.2841C22.7079 84.1836 22.7546 84.0551 22.7549 83.9219L22.7513 82.5935C22.7513 82.4571 22.819 82.3926 22.9544 82.4L23.5312 82.4372C23.611 82.4422 23.6509 82.4844 23.6509 82.5638L23.6436 83.9703C23.6435 84.0806 23.6786 84.1879 23.7434 84.2759C23.8082 84.3638 23.8993 84.4277 24.0028 84.4577L24.2385 84.5247C24.5433 84.614 24.6944 84.4962 24.692 84.1712L24.6775 80.8335C24.6775 80.7871 24.6958 80.7427 24.7285 80.7099C24.7611 80.6771 24.8054 80.6586 24.8516 80.6586L25.4828 80.6549C25.5432 80.6549 25.5734 80.6859 25.5734 80.7479L25.5771 83.3265C25.5795 83.5944 25.6641 83.6267 25.831 83.4233ZM20.7531 83.0472C20.7499 82.9298 20.7014 82.8185 20.6182 82.7378C20.535 82.6571 20.424 82.6136 20.3095 82.6169L20.0992 82.623C20.0426 82.6246 19.9868 82.6376 19.935 82.6614C19.8833 82.6851 19.8366 82.7191 19.7976 82.7613C19.7587 82.8036 19.7282 82.8533 19.708 82.9076C19.6878 82.9619 19.6782 83.0198 19.6798 83.0779L19.7074 84.0896C19.7106 84.207 19.7591 84.3183 19.8423 84.399C19.9254 84.4797 20.0364 84.5232 20.1509 84.5199L20.3612 84.5139C20.4179 84.5122 20.4737 84.4992 20.5254 84.4754C20.5772 84.4517 20.6238 84.4177 20.6628 84.3755C20.7017 84.3332 20.7322 84.2835 20.7524 84.2292C20.7726 84.1749 20.7822 84.117 20.7806 84.0589L20.7531 83.0472ZM26.1067 84.134C25.8479 84.4217 25.9084 84.5482 26.2881 84.5135C26.7161 84.4763 27.1441 84.4726 27.5722 84.5024C27.9349 84.5284 28.1598 84.2568 28.1344 83.8921C28.1151 83.6267 27.9784 83.4729 27.7245 83.4307C27.1562 83.3365 26.6169 83.5709 26.1067 84.134Z" fill="#151D28"/>
<path d="M34.2843 80.6408L33.965 80.6391C33.8186 80.6383 33.6994 80.7593 33.6986 80.9093L33.6775 85.0469C33.6767 85.197 33.7947 85.3192 33.9411 85.32L34.2604 85.3217C34.4068 85.3225 34.526 85.2015 34.5268 85.0515L34.5479 80.9139C34.5486 80.7639 34.4306 80.6416 34.2843 80.6408Z" fill="#151D28"/>
<path d="M62.4574 81.4958C62.3437 81.4933 62.3002 81.4363 62.3268 81.3247L62.3631 81.1647C62.3727 81.125 62.3969 81.1039 62.4356 81.1014C62.9676 81.0468 63.496 81.0791 64.0208 81.1982C64.0491 81.2042 64.0744 81.2206 64.0923 81.2444C64.1102 81.2682 64.1195 81.2979 64.1187 81.3284L64.1151 81.4363C64.1127 81.4834 64.0885 81.507 64.0426 81.507L62.4574 81.4958Z" fill="#151D28"/>
<path d="M42.5572 84.1674C41.984 81.9721 44.6575 80.7367 45.3612 82.9209C45.4047 83.0524 45.3697 83.1553 45.256 83.2297C45.0867 83.3389 44.9005 83.3538 44.6974 83.2744C44.5958 83.2372 44.5233 83.169 44.4797 83.0697C44.3685 82.8341 44.1569 82.7249 43.8449 82.7423C43.7331 82.7493 43.6272 82.7963 43.5456 82.8752C43.4641 82.9541 43.4121 83.0598 43.3987 83.1739C43.221 84.6809 44.3782 84.5135 45.3431 84.4762C45.4616 84.4688 45.5208 84.5271 45.5208 84.6511L45.5244 85.2762C45.5244 85.3556 45.487 85.3953 45.412 85.3953C44.3673 85.3953 43.2706 85.3928 42.1219 85.3879C41.7845 85.3842 41.4689 85.3172 41.1824 85.1349C41.1337 85.1036 41.0775 85.0871 41.0204 85.0871C40.9633 85.0871 40.9075 85.1036 40.8595 85.1349C40.3493 85.4722 39.8269 85.4673 39.2925 85.12C39.2175 85.0728 39.1401 85.0691 39.0603 85.1088C38.5307 85.3817 37.885 85.4722 37.1233 85.3804C37.0193 85.368 36.9685 85.3097 36.9709 85.2056L36.9745 84.6697C36.977 84.5432 37.0398 84.48 37.1632 84.48L38.2079 84.4949C38.2704 84.4964 38.3324 84.4819 38.3882 84.4527C38.4439 84.4236 38.4919 84.3806 38.5278 84.3276C38.5636 84.2747 38.5863 84.2133 38.5938 84.149C38.6012 84.0847 38.5933 84.0195 38.5706 83.959L37.9866 82.4335C37.9479 82.3317 37.9793 82.2648 38.0809 82.2325L38.538 82.0837C38.6758 82.039 38.7725 82.0862 38.8282 82.2251L39.6262 84.1972C39.6504 84.2562 39.6856 84.3097 39.7299 84.3544C39.7741 84.3991 39.8264 84.4342 39.8837 84.4576C40.0966 84.5494 40.2876 84.5221 40.4569 84.3758C40.5826 84.2642 40.6407 84.119 40.631 83.9404C40.6068 83.484 40.6008 83.0387 40.6129 82.6046C40.6177 82.4756 40.6842 82.4099 40.8124 82.4074L41.2767 82.4C41.4218 82.3975 41.4943 82.4707 41.4943 82.6195V84C41.4943 84.2778 41.6286 84.4378 41.897 84.48L42.238 84.5321C42.5257 84.5767 42.6321 84.4552 42.5572 84.1674Z" fill="#151D28"/>
<path d="M57.067 84.1116C57.0815 83.5982 57.1177 83.0946 57.1758 82.601C57.2072 82.343 57.3535 82.2586 57.6147 82.3479C57.6781 82.3686 57.7341 82.4087 57.7755 82.4631C57.8168 82.5175 57.8417 82.5836 57.8469 82.653L57.9557 84.1265C57.9775 84.4316 58.1371 84.583 58.4345 84.5805H58.5252C58.8662 84.578 59.0355 84.4031 59.033 84.0558L59.0222 82.7423C59.0222 82.5141 59.1334 82.3988 59.3559 82.3963H59.4792C59.6727 82.3938 59.7706 82.4918 59.773 82.6903L59.7767 84.0112C59.7767 84.3808 59.9568 84.5606 60.3172 84.5507L60.5094 84.547C60.8504 84.5396 61.0015 84.3609 60.9628 84.0112C60.9 83.4952 60.935 83.0078 61.068 82.5489C61.1164 82.3752 61.2361 82.3045 61.4272 82.3368C61.4959 82.3486 61.5585 82.3842 61.6047 82.4377C61.6509 82.4912 61.6779 82.5593 61.6811 82.6307L61.7645 84.1079C61.7814 84.4056 61.935 84.5644 62.2252 84.5842L62.3993 84.5954C62.6895 84.6152 62.8407 84.4763 62.8527 84.1786L62.9217 82.4447C62.9226 82.4155 62.9301 82.387 62.9436 82.3613C62.957 82.3356 62.9761 82.3135 62.9992 82.2965C63.0224 82.2796 63.049 82.2684 63.0771 82.2638C63.1052 82.2591 63.1339 82.2612 63.1611 82.2698L63.3243 82.3219C63.4248 82.3539 63.5121 82.4195 63.5725 82.5084C63.6329 82.5973 63.663 82.7044 63.658 82.813L63.5927 83.9777C63.571 84.3597 63.7451 84.5743 64.1151 84.6214C64.1538 84.6264 64.1913 84.6289 64.2275 84.6289C64.6266 84.6264 64.8224 84.4205 64.8152 84.0112L64.7789 82.4447C64.7778 82.4127 64.7849 82.3809 64.7996 82.3526C64.8142 82.3244 64.8359 82.3005 64.8623 82.2835C64.8888 82.2666 64.9192 82.2571 64.9504 82.2559C64.9816 82.2548 65.0125 82.2622 65.0401 82.2772C65.0764 82.2946 65.1139 82.3107 65.1525 82.3256C65.2484 82.3615 65.3312 82.4269 65.3896 82.5128C65.448 82.5986 65.4792 82.7009 65.479 82.8056L65.4863 84.1116C65.4887 84.4267 65.6423 84.5706 65.947 84.5433L66.3278 84.5098C66.4347 84.5005 66.5344 84.4504 66.6075 84.3693C66.6806 84.2881 66.7219 84.1817 66.7232 84.0707L66.7377 82.5861C66.7402 82.4447 66.8091 82.3802 66.9445 82.3926L67.3363 82.4298C67.4693 82.4422 67.5358 82.5166 67.5358 82.653L67.543 83.9814C67.5439 84.1123 67.59 84.2386 67.6729 84.3381C67.7559 84.4375 67.8705 84.5036 67.9965 84.5247L68.1597 84.5507C68.2064 84.5587 68.2543 84.5562 68.3 84.5433C68.3458 84.5305 68.3883 84.5075 68.4248 84.4761C68.4613 84.4447 68.4908 84.4055 68.5114 84.3613C68.532 84.317 68.5432 84.2687 68.5442 84.2196L68.5623 82.7051C68.5648 82.4645 68.6833 82.3516 68.9178 82.3665L69.1101 82.3777C69.1919 82.3831 69.2688 82.4189 69.3258 82.478C69.3828 82.5372 69.4158 82.6155 69.4184 82.6977L69.4765 84.041C69.4837 84.2667 69.5938 84.4106 69.8066 84.4726C69.9202 84.5073 70.0339 84.5135 70.1475 84.4912C70.4547 84.4242 70.5998 84.2307 70.5828 83.9107C70.5393 83.0475 70.6808 82.0428 71.6711 81.8382C72.6577 81.6372 73.4957 82.4037 73.376 83.4382C73.3361 83.8065 73.4485 84.2233 73.2563 84.5582C72.7799 85.4115 72.0834 85.6099 71.1669 85.1535C71.0459 85.094 70.9275 85.0965 70.8114 85.1609C70.2673 85.4636 69.7243 85.4586 69.1826 85.1461C69.0666 85.0791 68.9481 85.0754 68.8272 85.1349C68.358 85.3606 67.8635 85.373 67.3435 85.1721C67.1936 85.1151 67.0412 85.1089 66.8865 85.1535C66.3786 85.2974 65.8623 85.2887 65.3375 85.1275C65.1924 85.0828 65.0473 85.0816 64.9023 85.1237C64.3751 85.2676 63.8588 85.2565 63.3533 85.0902C63.2542 85.058 63.1538 85.0568 63.0523 85.0865C62.6 85.223 62.1575 85.2378 61.7246 85.1312C61.1986 84.9972 60.7778 85.2726 60.2664 85.2019C59.6811 85.12 59.1189 85.1324 58.5796 85.2391C58.4539 85.2639 58.3293 85.2602 58.206 85.2279C57.4624 85.0419 56.8965 85.2837 56.1746 85.3135C54.8711 85.3681 53.5894 85.3916 52.3295 85.3842C52.1989 85.3842 52.1155 85.4487 52.0792 85.5777C51.7963 86.56 51.0659 87.1492 49.8882 87.3451C48.505 87.5783 47.7988 86.9904 47.7698 85.5814C47.7674 85.4673 47.8145 85.3805 47.9113 85.321C48.0709 85.2192 48.245 85.1547 48.4336 85.1275C48.4539 85.1239 48.4747 85.1253 48.4944 85.1315C48.514 85.1377 48.5321 85.1486 48.5472 85.1634C48.5623 85.1781 48.5739 85.1963 48.5813 85.2165C48.5886 85.2367 48.5915 85.2585 48.5896 85.28C48.4977 86.1309 48.8701 86.5315 49.7069 86.4819C50.147 86.4571 50.4904 86.3467 50.7371 86.1507C51.2086 85.7737 51.1482 85.5479 50.5557 85.4735L50.1603 85.4251C50.0104 85.4053 49.9608 85.3222 50.0116 85.1758L50.1821 84.6661C50.2232 84.547 50.3042 84.4875 50.4251 84.4875L53.0405 84.5023C53.0619 84.5027 53.0831 84.4982 53.1026 84.4891C53.1221 84.4801 53.1394 84.4667 53.1532 84.45C53.1671 84.4333 53.1772 84.4136 53.1828 84.3924C53.1884 84.3713 53.1893 84.3491 53.1856 84.3275C53.0042 83.3303 53.2618 81.8233 54.5531 81.8642C56.0658 81.9051 55.9751 83.1665 55.9461 84.3163C55.9446 84.3668 55.9542 84.4171 55.9742 84.4633C55.9941 84.5095 56.0239 84.5504 56.0612 84.583C56.0986 84.6155 56.1426 84.6389 56.1898 84.6514C56.2371 84.6639 56.2865 84.6651 56.3342 84.6549L56.6752 84.5842C56.9291 84.5346 57.0597 84.3771 57.067 84.1116ZM55.1397 83.0691C55.14 83.0105 55.129 82.9524 55.1074 82.8981C55.0858 82.8438 55.054 82.7944 55.0138 82.7527C54.9736 82.711 54.9258 82.6779 54.8731 82.6551C54.8204 82.6324 54.7638 82.6206 54.7067 82.6203L54.4455 82.6188C54.3883 82.6185 54.3317 82.6298 54.2787 82.6519C54.2258 82.6741 54.1777 82.7067 54.137 82.748C54.0964 82.7892 54.0641 82.8383 54.0419 82.8923C54.0198 82.9464 54.0082 83.0044 54.0079 83.0631L54.0029 84.0602C54.0026 84.1189 54.0135 84.177 54.0351 84.2313C54.0567 84.2856 54.0885 84.335 54.1287 84.3766C54.1689 84.4183 54.2168 84.4515 54.2695 84.4742C54.3222 84.4969 54.3787 84.5088 54.4359 84.5091L54.697 84.5105C54.7542 84.5108 54.8109 84.4996 54.8638 84.4774C54.9167 84.4552 54.9649 84.4226 55.0055 84.3814C55.0462 84.3401 55.0785 84.2911 55.1006 84.237C55.1228 84.1829 55.1343 84.1249 55.1346 84.0663L55.1397 83.0691ZM72.4924 83.1331C72.49 83.0117 72.4406 82.8964 72.3552 82.8123C72.2698 82.7283 72.1554 82.6825 72.037 82.6851L71.8847 82.6884C71.7664 82.6909 71.6539 82.7416 71.572 82.8292C71.4901 82.9168 71.4455 83.0342 71.448 83.1555L71.4664 84.0558C71.4689 84.1771 71.5182 84.2925 71.6036 84.3765C71.689 84.4606 71.8035 84.5063 71.9218 84.5038L72.0741 84.5005C72.1924 84.498 72.3049 84.4473 72.3868 84.3597C72.4687 84.2721 72.5133 84.1547 72.5108 84.0334L72.4924 83.1331Z" fill="#151D28"/>
<path d="M5.22706 86.9582C5.18836 87.1045 5.01425 87.1107 4.7047 86.9768C4.62159 86.9414 4.55227 86.8788 4.50763 86.7986C4.46299 86.7185 4.44554 86.6254 4.45804 86.534C4.48222 86.3628 4.58742 86.2252 4.77362 86.121C4.82679 86.0925 4.88711 86.0812 4.94666 86.0885C5.00622 86.0958 5.06223 86.1214 5.10735 86.1619C5.29235 86.3331 5.52451 86.3666 5.74215 86.2401C6.03477 86.0788 6.28143 86.1421 6.48215 86.4298C6.57163 86.5588 6.55712 86.6742 6.43862 86.7759L6.09764 87.0624C5.97431 87.1666 5.87516 87.1467 5.80019 87.0028C5.71797 86.8441 5.59222 86.7734 5.42294 86.7907C5.32137 86.8007 5.25608 86.8565 5.22706 86.9582Z" fill="#151D28"/>
<path d="M23.3607 86.3107L23.5058 86.147C23.6025 86.0379 23.715 86.0168 23.8431 86.0837C23.9786 86.1557 24.0813 86.2549 24.1515 86.3814C24.2289 86.5253 24.2168 86.6592 24.1152 86.7833L23.8685 87.0884C23.7113 87.2819 23.588 87.2608 23.4985 87.0251C23.4356 86.8639 23.3329 86.7709 23.1902 86.7461C23.0717 86.7262 22.9689 86.7622 22.8819 86.854C22.8166 86.9234 22.7597 86.9966 22.7114 87.0735C22.6122 87.2223 22.5106 87.2248 22.4067 87.081L22.1491 86.7275C22.0996 86.6592 22.0784 86.5736 22.0899 86.4894C22.1015 86.4051 22.1449 86.3289 22.2108 86.2772L22.4611 86.0763C22.5651 85.9944 22.6642 85.9982 22.7585 86.0875L23.0197 86.3293C23.1382 86.441 23.2519 86.4348 23.3607 86.3107Z" fill="#151D28"/>
<path d="M40.9062 86.0612L40.5371 86.4306C40.4568 86.5111 40.4552 86.6431 40.5336 86.7256L40.9039 87.1148C40.9823 87.1972 41.1111 87.1988 41.1914 87.1184L41.5605 86.749C41.6409 86.6685 41.6424 86.5364 41.564 86.454L41.1937 86.0648C41.1153 85.9823 40.9866 85.9807 40.9062 86.0612Z" fill="#151D28"/>
<path d="M12.0615 86.2958C12.1486 86.2958 12.2163 86.3368 12.2647 86.4186C12.2794 86.4416 12.2883 86.4681 12.2909 86.496C12.2934 86.5238 12.2894 86.5522 12.2792 86.5786C12.1486 86.9259 11.9453 87.0189 11.6695 86.8577C11.5195 86.7709 11.4663 86.6319 11.5098 86.4409C11.5364 86.3144 11.6126 86.2549 11.7385 86.2623C11.8473 86.2698 11.9453 86.2958 12.0615 86.2958Z" fill="#151D28"/>
<path d="M1.91519 94.3181L1.84264 94.7386C1.83636 94.7761 1.81832 94.8104 1.79138 94.836C1.76445 94.8616 1.73015 94.8771 1.69392 94.88L1.09176 94.9395C1.07279 94.9419 1.05356 94.9393 1.03586 94.9319C1.01816 94.9245 1.00259 94.9126 0.99061 94.8974C0.978631 94.8821 0.970642 94.8639 0.967395 94.8446C0.964148 94.8253 0.965752 94.8055 0.972053 94.787L2.25254 91.0251C2.30575 90.8688 2.41336 90.7957 2.57539 90.8056L3.06872 90.8279C3.13294 90.831 3.19486 90.8539 3.24656 90.8937C3.29825 90.9335 3.33738 90.9883 3.35892 91.0512L4.63215 94.7721C4.65875 94.844 4.63457 94.8912 4.5596 94.9135C4.00823 95.0698 3.72045 94.8974 3.69627 94.3963C3.68901 94.1978 3.58745 94.0974 3.39156 94.0949L2.18725 94.0837C2.03248 94.0837 1.94179 94.1619 1.91519 94.3181ZM2.30333 93.1758C2.29544 93.2017 2.29354 93.2292 2.29779 93.256C2.30203 93.2828 2.31231 93.3082 2.3278 93.3302C2.34328 93.3523 2.36356 93.3703 2.38702 93.3829C2.41047 93.3955 2.43647 93.4023 2.46294 93.4028L3.10499 93.414C3.13167 93.4144 3.15808 93.4085 3.1821 93.3966C3.20613 93.3847 3.2271 93.3672 3.24333 93.3455C3.25956 93.3238 3.27059 93.2985 3.27555 93.2716C3.2805 93.2447 3.27924 93.217 3.27186 93.1907L2.96715 92.0967C2.95738 92.0605 2.93649 92.0285 2.90758 92.0054C2.87866 91.9823 2.84326 91.9693 2.80661 91.9685C2.76997 91.9677 2.73404 91.979 2.70415 92.0007C2.67426 92.0225 2.65201 92.0535 2.64068 92.0893L2.30333 93.1758Z" fill="#151D28"/>
<path d="M6.18107 92.0409C8.42646 90.7126 8.93793 95.6614 6.27901 94.8837C6.13875 94.844 5.99607 94.8391 5.85097 94.8688L5.47009 94.947C5.29597 94.9842 5.20891 94.911 5.20891 94.7274L5.20166 91.0474C5.20166 90.854 5.29597 90.7684 5.4846 90.7907L5.72039 90.8205C5.86307 90.8378 5.93682 90.9209 5.94166 91.0698L5.96705 91.9181C5.97189 92.0819 6.04323 92.1228 6.18107 92.0409ZM6.58307 94.392C6.77055 94.3987 6.95387 94.3021 7.09268 94.1234C7.2315 93.9448 7.31445 93.6987 7.32328 93.4393C7.32766 93.3109 7.3137 93.183 7.28222 93.0631C7.25073 92.9432 7.20233 92.8335 7.13978 92.7403C7.07723 92.6471 7.00175 92.5723 6.91766 92.5201C6.83356 92.4679 6.7425 92.4393 6.64967 92.4359C6.46218 92.4292 6.27887 92.5258 6.14005 92.7045C6.00123 92.8831 5.91828 93.1292 5.90945 93.3886C5.90507 93.517 5.91903 93.6449 5.95051 93.7648C5.982 93.8847 6.0304 93.9944 6.09295 94.0876C6.1555 94.1808 6.23098 94.2556 6.31507 94.3078C6.39917 94.36 6.49023 94.3886 6.58307 94.392Z" fill="#151D28"/>
<path d="M16.1026 90.8387L15.7397 90.8393C15.6234 90.8396 15.5293 90.9363 15.5295 91.0555L15.5357 94.6946C15.5359 94.8138 15.6303 94.9102 15.7466 94.91L16.1095 94.9094C16.2258 94.9092 16.3199 94.8124 16.3197 94.6932L16.3135 91.0541C16.3133 90.9349 16.2189 90.8385 16.1026 90.8387Z" fill="#151D28"/>
<path d="M19.4685 94.2176L21.177 94.199C21.2162 94.199 21.2539 94.2144 21.2822 94.2421C21.3106 94.2698 21.3275 94.3077 21.3293 94.3479L21.3547 94.7497C21.3562 94.7712 21.3534 94.7927 21.3464 94.813C21.3394 94.8332 21.3284 94.8518 21.3141 94.8675C21.2999 94.8832 21.2825 94.8957 21.2633 94.9043C21.2441 94.9128 21.2233 94.9172 21.2024 94.9172L18.645 94.9134C18.6046 94.9134 18.5659 94.897 18.5373 94.8677C18.5087 94.8384 18.4927 94.7986 18.4927 94.7572L18.4999 90.9841C18.4999 90.9433 18.5155 90.9041 18.5433 90.8749C18.5711 90.8457 18.6089 90.8288 18.6487 90.8279L19.1529 90.8167C19.1732 90.8162 19.1934 90.8199 19.2123 90.8275C19.2312 90.8351 19.2484 90.8466 19.263 90.8611C19.2775 90.8757 19.289 90.8931 19.2969 90.9123C19.3048 90.9315 19.3089 90.9521 19.3089 90.973L19.3161 94.0613C19.3161 94.0819 19.32 94.1022 19.3277 94.1211C19.3354 94.1401 19.3466 94.1573 19.3607 94.1719C19.3749 94.1864 19.3917 94.1979 19.4102 94.2057C19.4286 94.2136 19.4485 94.2176 19.4685 94.2176Z" fill="#151D28"/>
<path d="M27.235 90.7386C27.3112 90.7076 27.3958 90.7064 27.4728 90.7353C27.5497 90.7641 27.6137 90.8209 27.6524 90.8949C27.7758 91.1281 27.731 91.3377 27.5181 91.5237C27.4505 91.5826 27.364 91.6133 27.2759 91.6099C27.1877 91.6064 27.1045 91.569 27.0427 91.5051C26.7185 91.1827 26.7826 90.9272 27.235 90.7386Z" fill="#151D28"/>
<path d="M29.4657 91.9144C29.531 91.907 29.5939 91.912 29.6543 91.9293C29.7365 91.9541 29.7934 92.0087 29.8248 92.093C29.8466 92.1575 29.8478 92.222 29.8284 92.2865C29.8171 92.3237 29.7916 92.3549 29.7572 92.3735C29.7228 92.3922 29.6821 92.397 29.6434 92.387C29.5999 92.3746 29.554 92.3696 29.5056 92.3721C29.3653 92.3845 29.2952 92.4627 29.2952 92.6065V94.7796C29.2953 94.802 29.2907 94.8243 29.2819 94.8449C29.273 94.8655 29.26 94.8841 29.2437 94.8994C29.2274 94.9148 29.208 94.9266 29.1869 94.9342C29.1659 94.9417 29.1434 94.9448 29.1211 94.9433L28.7039 94.9098C28.6072 94.8999 28.5588 94.8453 28.5588 94.7461L28.5552 92.7442C28.5552 92.6078 28.5068 92.4912 28.4101 92.3944C28.3666 92.3523 28.317 92.3262 28.2614 92.3163C28.0727 92.2841 28.0498 92.2059 28.1924 92.0819L28.392 91.9107C28.4863 91.8289 28.5395 91.7247 28.5516 91.5982C28.612 90.9854 28.9687 90.7126 29.6217 90.7796C29.7281 90.7895 29.7934 90.8478 29.8175 90.9544C29.8345 91.0239 29.8345 91.0934 29.8175 91.1628C29.7861 91.3017 29.7039 91.3923 29.5709 91.4344C29.4306 91.4791 29.3411 91.5734 29.3024 91.7172C29.2589 91.8685 29.3133 91.9343 29.4657 91.9144Z" fill="#151D28"/>
<path d="M32.393 94.2698C32.6058 94.3541 32.8114 94.3554 33.0097 94.2735C33.1427 94.2165 33.2092 94.1148 33.2092 93.9684L33.2237 90.9693C33.2237 90.8627 33.2757 90.8081 33.3797 90.8056L33.8259 90.7982C33.9395 90.7957 33.9976 90.854 34 90.9731C34.0145 91.8983 34.0121 92.8484 33.9927 93.8233C33.9782 94.6121 33.5768 95.0152 32.7884 95.0326C31.7655 95.0574 31.3254 94.5278 31.468 93.4438C31.4753 93.3867 31.5067 93.3582 31.5623 93.3582H32.0738C32.1391 93.3582 32.1742 93.3917 32.179 93.4586L32.2298 94.0465C32.234 94.0957 32.2515 94.1426 32.2803 94.1821C32.3092 94.2215 32.3482 94.2519 32.393 94.2698Z" fill="#151D28"/>
<path d="M49.7907 90.8053L49.3624 90.806C49.2843 90.8062 49.221 90.8712 49.2211 90.9514L49.2277 94.7839C49.2278 94.8641 49.2913 94.9289 49.3694 94.9288L49.7977 94.928C49.8759 94.9279 49.9391 94.8628 49.939 94.7827L49.9325 90.9501C49.9323 90.87 49.8689 90.8051 49.7907 90.8053Z" fill="#151D28"/>
<path d="M54.3899 93.0344L53.1022 93.053C53.0634 93.054 53.0265 93.0705 52.9994 93.099C52.9722 93.1275 52.9571 93.1658 52.9571 93.2056L52.9861 94.746C52.9866 94.7661 52.9832 94.786 52.9762 94.8047C52.9692 94.8234 52.9586 94.8405 52.9451 94.855C52.9316 94.8695 52.9155 94.8812 52.8977 94.8893C52.8798 94.8974 52.8605 94.9018 52.841 94.9023L52.3005 94.9209C52.2807 94.9214 52.261 94.9178 52.2425 94.9104C52.224 94.903 52.2072 94.8918 52.193 94.8776C52.1788 94.8634 52.1675 94.8464 52.1598 94.8276C52.1521 94.8089 52.1482 94.7887 52.1482 94.7684L52.1409 90.9842C52.1404 90.9638 52.1439 90.9436 52.1512 90.9247C52.1584 90.9057 52.1693 90.8885 52.1832 90.8739C52.197 90.8593 52.2136 90.8478 52.2319 90.8399C52.2502 90.832 52.2698 90.8279 52.2896 90.8279L52.8301 90.8242C52.85 90.8237 52.8697 90.8273 52.8882 90.8347C52.9066 90.8422 52.9234 90.8533 52.9376 90.8675C52.9518 90.8817 52.9631 90.8987 52.9708 90.9175C52.9785 90.9362 52.9825 90.9564 52.9825 90.9767L52.968 92.2084C52.968 92.2488 52.9836 92.2876 53.0115 92.3162C53.0394 92.3449 53.0772 92.3609 53.1167 92.3609L54.3899 92.3646C54.4294 92.3646 54.4672 92.3486 54.4951 92.32C54.523 92.2914 54.5387 92.2526 54.5387 92.2121V90.9656C54.5386 90.9258 54.5538 90.8875 54.5809 90.859C54.608 90.8305 54.6449 90.814 54.6838 90.813L55.2025 90.7981C55.2223 90.7976 55.242 90.8012 55.2605 90.8087C55.279 90.8161 55.2958 90.8273 55.31 90.8415C55.3242 90.8557 55.3355 90.8727 55.3432 90.8914C55.3509 90.9102 55.3548 90.9303 55.3548 90.9507L55.3621 94.7758C55.3621 94.8163 55.3464 94.8551 55.3185 94.8837C55.2906 94.9123 55.2528 94.9284 55.2134 94.9284L54.6874 94.9209C54.6479 94.9209 54.6101 94.9049 54.5822 94.8762C54.5543 94.8476 54.5387 94.8088 54.5387 94.7684V93.187C54.5387 93.1465 54.523 93.1077 54.4951 93.0791C54.4672 93.0505 54.4294 93.0344 54.3899 93.0344Z" fill="#151D28"/>
<path d="M66.386 90.7832L66.7489 90.7869C66.7996 90.7866 66.8488 90.8058 66.8869 90.8408C66.925 90.8758 66.9496 90.9242 66.9558 90.9767C66.9679 91.1057 66.9522 91.2248 66.9086 91.3339C66.8807 91.4049 66.8332 91.4661 66.7719 91.5099C66.7107 91.5538 66.6383 91.5784 66.5637 91.5807C66.489 91.5831 66.4153 91.5631 66.3515 91.5233C66.2877 91.4834 66.2367 91.4254 66.2045 91.3562C66.1537 91.2446 66.1428 91.1131 66.1718 90.9618C66.1812 90.9115 66.2077 90.866 66.2468 90.8334C66.2859 90.8008 66.3351 90.783 66.386 90.7832Z" fill="#151D28"/>
<path d="M73.3328 90.7981H72.89C72.8138 90.7981 72.7521 90.8614 72.7521 90.9395V94.7869C72.7521 94.865 72.8138 94.9283 72.89 94.9283H73.3328C73.4089 94.9283 73.4707 94.865 73.4707 94.7869V90.9395C73.4707 90.8614 73.4089 90.7981 73.3328 90.7981Z" fill="#151D28"/>
<path d="M10.5594 91.747L10.5739 91.3563C10.5787 91.1529 10.6706 91.0028 10.8496 90.9061C10.9753 90.8366 11.1023 90.88 11.2305 91.0363C11.2984 91.1204 11.3356 91.2244 11.3357 91.3303L11.3465 94.694C11.3465 94.8949 11.251 94.9718 11.06 94.9247C10.6005 94.8106 10.1495 94.8279 9.70693 94.9768C9.62115 95.0065 9.52913 95.0136 9.4392 94.9974C9.34927 94.9811 9.26425 94.9421 9.19184 94.8838C8.54857 94.3628 8.34664 93.6695 8.58605 92.8038C8.82788 91.9355 9.39256 91.6503 10.2801 91.9479C10.3119 91.9585 10.3457 91.9613 10.3787 91.9562C10.4118 91.9512 10.4431 91.9384 10.4703 91.9188C10.4975 91.8993 10.5197 91.8736 10.5351 91.8437C10.5506 91.8139 10.5589 91.7808 10.5594 91.747ZM9.89705 94.3844C10.0864 94.3922 10.2721 94.2962 10.4132 94.1177C10.5543 93.9391 10.6393 93.6926 10.6495 93.4323C10.6545 93.3034 10.6411 93.175 10.6098 93.0544C10.5786 92.9338 10.5303 92.8235 10.4675 92.7296C10.4048 92.6357 10.3289 92.5601 10.2442 92.5073C10.1595 92.4544 10.0676 92.4251 9.97388 92.4213C9.78451 92.4135 9.59885 92.5094 9.45774 92.688C9.31663 92.8665 9.23163 93.1131 9.22144 93.3734C9.21639 93.5023 9.22986 93.6307 9.26108 93.7513C9.2923 93.8718 9.34066 93.9822 9.40339 94.0761C9.46613 94.17 9.54202 94.2455 9.62672 94.2984C9.71142 94.3513 9.80328 94.3805 9.89705 94.3844Z" fill="#151D28"/>
<path d="M25.1236 91.3823C25.0898 91.3451 25.068 91.303 25.0583 91.2558C25.0542 91.2334 25.0547 91.2103 25.06 91.1881C25.0652 91.1659 25.0751 91.1451 25.0888 91.1271C25.1026 91.1091 25.1199 91.0944 25.1397 91.0838C25.1594 91.0733 25.1812 91.0673 25.2034 91.0661L25.7584 91.0475C25.8576 91.0425 25.9023 91.0909 25.8926 91.1926L25.8564 91.5535C25.8467 91.6751 25.8914 91.7693 25.9906 91.8363C26.0438 91.871 26.1055 91.8797 26.1756 91.8623C26.2989 91.8276 26.3642 91.876 26.3715 92.0075L26.3787 92.1786C26.386 92.3002 26.3304 92.3572 26.2119 92.3498C26.1393 92.3423 26.0728 92.3597 26.0123 92.4019C25.918 92.4689 25.8709 92.5619 25.8709 92.681L25.8818 94.0503C25.8842 94.2289 25.9712 94.3368 26.1429 94.374C26.2493 94.3963 26.3255 94.462 26.3715 94.5712C26.4489 94.7572 26.392 94.8763 26.201 94.9284C25.4755 95.1256 25.0366 94.8093 25.091 94.0577C25.1297 93.5541 25.1333 93.0841 25.1019 92.6475C25.0898 92.4788 25.0015 92.3895 24.8371 92.3796C24.7718 92.3771 24.7306 92.3411 24.7137 92.2716C24.675 92.0955 24.7319 91.9616 24.8842 91.8698L25.0692 91.7619C25.1002 91.7433 25.1268 91.7178 25.1469 91.6873C25.167 91.6568 25.1801 91.622 25.1854 91.5855C25.1906 91.5491 25.1878 91.5119 25.1771 91.4767C25.1664 91.4415 25.1481 91.4093 25.1236 91.3823Z" fill="#151D28"/>
<path d="M68.7727 91.8698C68.9058 91.8747 69.0013 91.9392 69.0593 92.0632C69.1367 92.2319 69.0859 92.3336 68.907 92.3684L68.7764 92.3944C68.6385 92.4217 68.5696 92.5073 68.5696 92.6512C68.5696 93.1609 68.4245 94.1358 68.8743 94.4707C69.225 94.7312 69.1863 94.8949 68.7582 94.9619C68.4826 95.0065 68.2431 94.9606 68.04 94.8242C67.907 94.7349 67.8393 94.6096 67.8369 94.4484C67.8199 93.9398 67.8127 93.4139 67.8151 92.8707C67.8151 92.7094 67.7752 92.5618 67.6954 92.4279C67.6736 92.3907 67.6446 92.3622 67.6083 92.3423C67.4245 92.2406 67.41 92.1178 67.5648 91.9739C67.7704 91.7805 67.855 91.5411 67.8187 91.2558C67.8156 91.2301 67.8179 91.2039 67.8255 91.1792C67.833 91.1544 67.8456 91.1316 67.8624 91.1122C67.8792 91.0928 67.8999 91.0774 67.923 91.0668C67.9461 91.0563 67.9712 91.051 67.9965 91.0512L68.3774 91.0549C68.5079 91.0574 68.5732 91.1256 68.5732 91.2595L68.5696 91.6465C68.5695 91.7038 68.5905 91.759 68.6283 91.8006C68.6662 91.8421 68.7179 91.8669 68.7727 91.8698Z" fill="#151D28"/>
<path d="M13.8532 94.7312C13.28 95.0884 12.7806 95.0847 12.355 94.72C12.2462 94.6283 12.1833 94.5104 12.1664 94.3666C12.0769 93.6124 12.0902 92.8397 12.2063 92.0484C12.2232 91.9318 12.2873 91.8562 12.3986 91.8214C12.4977 91.7867 12.5932 91.8041 12.6851 91.8735C12.7136 91.8956 12.7371 91.9241 12.754 91.9568C12.7709 91.9896 12.7808 92.0259 12.7831 92.0633L12.8701 93.9424C12.8846 94.2326 13.0346 94.3666 13.3199 94.3442L13.4324 94.3368C13.8096 94.307 14.0031 94.0974 14.0128 93.708L14.049 92.0893C14.0515 91.9604 14.1155 91.8897 14.2413 91.8773L14.5242 91.8475C14.5539 91.8449 14.5837 91.8484 14.6119 91.8579C14.64 91.8674 14.6659 91.8826 14.6877 91.9026C14.7096 91.9226 14.727 91.9468 14.7388 91.9739C14.7506 92.0009 14.7566 92.0301 14.7564 92.0596L14.7636 94.6791C14.7636 94.7982 14.708 94.8751 14.5968 94.9098C14.3985 94.9718 14.2244 94.9222 14.0744 94.761C14.0091 94.689 13.9354 94.6791 13.8532 94.7312Z" fill="#151D28"/>
<path d="M23.5131 92.6735C23.4115 92.4453 23.2289 92.3535 22.9653 92.3982C22.8314 92.4199 22.7077 92.4866 22.6135 92.588C22.42 92.8013 22.1818 92.8583 21.8989 92.7591C21.7634 92.712 21.7344 92.6276 21.8118 92.5061C22.2374 91.8463 22.8396 91.6354 23.6183 91.8735C23.793 91.927 23.947 92.0353 24.0589 92.1834C24.1708 92.3315 24.2349 92.512 24.2422 92.6996L24.3184 94.7721C24.3208 94.8614 24.2785 94.9123 24.1914 94.9247C24.0028 94.952 23.8226 94.9222 23.6509 94.8354C23.5961 94.8072 23.5363 94.791 23.4751 94.7878C23.4139 94.7846 23.3527 94.7945 23.2954 94.8168C22.657 95.0587 21.9714 95.174 21.7066 94.3442C21.6441 94.151 21.6527 93.9407 21.7308 93.7526C21.8088 93.5644 21.951 93.411 22.131 93.321C22.4889 93.1449 22.8734 93.0531 23.2845 93.0456C23.3269 93.0454 23.3684 93.0343 23.4054 93.0131C23.4424 92.992 23.4736 92.9616 23.4963 92.9246C23.519 92.8876 23.5324 92.8453 23.5354 92.8015C23.5383 92.7576 23.5306 92.7137 23.5131 92.6735ZM23.5566 93.7213C23.5105 93.6192 23.4065 93.5498 23.2678 93.5281C23.129 93.5065 22.9667 93.5345 22.8166 93.606C22.6665 93.6775 22.5409 93.7865 22.4674 93.9092C22.394 94.0319 22.3786 94.1582 22.4248 94.2602C22.471 94.3623 22.5749 94.4317 22.7137 94.4533C22.8525 94.475 23.0147 94.447 23.1648 94.3755C23.3149 94.304 23.4405 94.1949 23.514 94.0723C23.5875 93.9496 23.6028 93.8233 23.5566 93.7213Z" fill="#151D28"/>
<path d="M35.3276 92.7516C35.2799 92.8126 35.2139 92.8559 35.1398 92.8747C35.0658 92.8935 34.9878 92.8869 34.9177 92.8558L34.7545 92.7814C34.7359 92.7732 34.7193 92.761 34.7057 92.7457C34.6921 92.7303 34.6818 92.7122 34.6756 92.6924C34.6694 92.6727 34.6675 92.6518 34.6698 92.6312C34.6721 92.6106 34.6788 92.5907 34.6892 92.573C35.0665 91.9057 35.6577 91.6651 36.463 91.8511C36.9539 91.9677 37.1909 92.284 37.174 92.8C37.1523 93.4548 37.1704 94.0626 37.2284 94.6232C37.2599 94.9085 37.1414 95.009 36.8729 94.9246C36.4788 94.8031 36.0834 94.8155 35.6868 94.9618C35.5815 95.0005 35.4696 95.016 35.358 95.0074C35.2465 94.9988 35.1379 94.9663 35.0392 94.912C34.9405 94.8577 34.8538 94.7828 34.7848 94.692C34.7158 94.6013 34.6659 94.4967 34.6384 94.3851C34.3881 93.3767 35.422 93.0753 36.1547 93.0641C36.3022 93.0617 36.4002 92.9885 36.4485 92.8446C36.4727 92.7702 36.4691 92.6983 36.4376 92.6288C36.3941 92.5246 36.3143 92.4589 36.1982 92.4316C35.85 92.3547 35.5598 92.4614 35.3276 92.7516ZM36.5086 93.7616C36.4682 93.6517 36.3661 93.5709 36.2248 93.5369C36.0836 93.5029 35.9147 93.5184 35.7555 93.5802C35.6766 93.6107 35.6024 93.6517 35.5372 93.7008C35.472 93.7499 35.417 93.806 35.3754 93.8661C35.3338 93.9262 35.3064 93.989 35.2948 94.051C35.2831 94.1129 35.2874 94.1728 35.3074 94.2272C35.3479 94.337 35.45 94.4179 35.5912 94.4519C35.7325 94.4859 35.9013 94.4703 36.0606 94.4086C36.1395 94.378 36.2136 94.337 36.2788 94.288C36.344 94.2389 36.399 94.1827 36.4406 94.1227C36.4822 94.0626 36.5096 93.9998 36.5213 93.9378C36.533 93.8758 36.5287 93.816 36.5086 93.7616Z" fill="#151D28"/>
<path d="M40.4315 92.1526C41.0264 91.6093 41.5584 91.6651 42.0276 92.32C42.1098 92.4316 42.1509 92.5569 42.1509 92.6958L42.169 94.6642C42.1715 94.8304 42.0916 94.9172 41.9296 94.9247L41.6539 94.9395C41.6257 94.941 41.5975 94.9367 41.5709 94.9268C41.5444 94.9168 41.52 94.9015 41.4994 94.8817C41.4787 94.8619 41.4622 94.838 41.4507 94.8115C41.4393 94.785 41.4331 94.7564 41.4327 94.7274L41.3964 92.8521C41.394 92.7542 41.3536 92.6606 41.2839 92.5916C41.0494 92.351 40.8087 92.3597 40.5621 92.6177C40.4832 92.6986 40.4388 92.8083 40.4387 92.9228L40.4315 94.7274C40.4315 94.7537 40.4264 94.7796 40.4165 94.8038C40.4066 94.828 40.3921 94.8499 40.3739 94.8682C40.3557 94.8866 40.334 94.901 40.3103 94.9107C40.2865 94.9204 40.2612 94.9251 40.2356 94.9247L39.8293 94.9135C39.7036 94.911 39.6407 94.8453 39.6407 94.7163L39.6334 92.7963C39.6332 92.7069 39.6013 92.6208 39.5438 92.5542C39.4863 92.4877 39.4072 92.4454 39.3215 92.4354L39.2054 92.4242C38.862 92.3845 38.6891 92.5433 38.6867 92.9005L38.6722 94.6977C38.6698 94.8465 38.596 94.9209 38.4509 94.9209H38.0664C38.0269 94.9209 37.9891 94.9049 37.9612 94.8763C37.9333 94.8476 37.9177 94.8088 37.9177 94.7684L37.9213 92.0967C37.9213 91.9033 38.0144 91.8189 38.2006 91.8437C38.3239 91.8586 38.4412 91.8946 38.5525 91.9516C38.6806 92.0136 38.8076 92.0136 38.9334 91.9516C39.4484 91.6986 39.8632 91.7594 40.1776 92.134C40.2574 92.2257 40.342 92.2319 40.4315 92.1526Z" fill="#151D28"/>
<path d="M43.435 93.8419C43.5342 94.1619 43.7518 94.3368 44.088 94.3666C44.2597 94.3815 44.412 94.3331 44.545 94.2215C44.7143 94.0825 44.9174 94.0255 45.1544 94.0503C45.2022 94.0545 45.2478 94.0729 45.2855 94.1032C45.3232 94.1336 45.3515 94.1746 45.3669 94.2212C45.3823 94.2677 45.3842 94.3179 45.3722 94.3656C45.3602 94.4132 45.335 94.4562 45.2995 94.4894C44.8352 94.9334 44.2802 95.0859 43.6345 94.947C42.2597 94.6494 42.3504 91.7359 44.1061 91.7917C44.6962 91.809 45.1242 92.1117 45.3902 92.6996C45.6586 93.29 45.4749 93.5839 44.8388 93.5815L43.62 93.5777C43.4411 93.5753 43.3794 93.6633 43.435 93.8419ZM43.6563 93.0642L44.4616 93.0828C44.4865 93.0835 44.5113 93.0787 44.5343 93.0687C44.5573 93.0586 44.578 93.0437 44.5951 93.0247C44.6122 93.0058 44.6253 92.9833 44.6335 92.9587C44.6418 92.9341 44.645 92.9079 44.643 92.8819C44.6236 92.6909 44.5293 92.5619 44.36 92.4949C43.9924 92.3535 43.7107 92.4565 43.5148 92.8038C43.5002 92.8302 43.4925 92.8602 43.4923 92.8906C43.4921 92.921 43.4996 92.9508 43.5138 92.9771C43.5281 93.0034 43.5488 93.0253 43.5738 93.0406C43.5988 93.0558 43.6272 93.064 43.6563 93.0642Z" fill="#151D28"/>
<path d="M46.7941 93.5777C46.7603 93.5782 46.7271 93.5869 46.6973 93.603C46.6674 93.6192 46.6417 93.6424 46.6222 93.6707C46.6028 93.699 46.5901 93.7316 46.5853 93.7659C46.5805 93.8002 46.5837 93.8351 46.5945 93.8679C46.7856 94.4434 47.343 94.4893 48.2668 94.0056C48.2885 93.9947 48.3124 93.9889 48.3365 93.9886C48.3606 93.9884 48.3844 93.9936 48.4061 94.004C48.4278 94.0144 48.4467 94.0297 48.4616 94.0486C48.4764 94.0676 48.4867 94.0898 48.4917 94.1135C48.5401 94.3293 48.4603 94.5129 48.2523 94.6642C48.1846 94.7138 48.1132 94.7547 48.0383 94.787C45.2089 95.9739 45.1835 91.4939 47.3745 91.8028C48.1024 91.907 48.5219 92.356 48.6332 93.1498C48.6743 93.4325 48.5558 93.5739 48.2777 93.5739L46.7941 93.5777ZM46.6308 92.7888C46.613 92.8198 46.6034 92.8551 46.603 92.8911C46.6027 92.9271 46.6116 92.9625 46.6289 92.9939C46.6462 93.0252 46.6713 93.0513 46.7015 93.0695C46.7318 93.0877 46.7662 93.0974 46.8013 93.0977L47.5957 93.0939C47.7215 93.0939 47.7904 93.0307 47.8025 92.9042C47.8194 92.733 47.7529 92.6115 47.603 92.5395C47.1749 92.3262 46.8509 92.4093 46.6308 92.7888Z" fill="#151D28"/>
<path d="M59.0548 93.4065C59.0548 93.8289 58.8912 94.234 58.6001 94.5326C58.3089 94.8313 57.914 94.9991 57.5023 94.9991C57.0905 94.9991 56.6956 94.8313 56.4044 94.5326C56.1133 94.234 55.9497 93.8289 55.9497 93.4065C55.9497 92.9841 56.1133 92.5791 56.4044 92.2804C56.6956 91.9818 57.0905 91.814 57.5023 91.814C57.914 91.814 58.3089 91.9818 58.6001 92.2804C58.8912 92.5791 59.0548 92.9841 59.0548 93.4065ZM57.491 94.3664C57.5906 94.368 57.6895 94.3445 57.7822 94.2972C57.8749 94.2498 57.9596 94.1797 58.0314 94.0906C58.1031 94.0016 58.1606 93.8954 58.2005 93.7782C58.2404 93.661 58.262 93.5351 58.2639 93.4076C58.2679 93.15 58.1918 92.9018 58.0524 92.7174C57.913 92.533 57.7218 92.4276 57.5208 92.4243C57.4212 92.4227 57.3222 92.4462 57.2295 92.4936C57.1368 92.5409 57.0522 92.6111 56.9804 92.7001C56.9086 92.7891 56.8511 92.8953 56.8112 93.0125C56.7713 93.1297 56.7498 93.2556 56.7479 93.3832C56.7439 93.6407 56.82 93.889 56.9594 94.0734C57.0987 94.2578 57.29 94.3632 57.491 94.3664Z" fill="#151D28"/>
<path d="M61.3546 93.9944C60.9725 93.8108 60.5699 93.6645 60.1467 93.5553C59.2942 93.3432 59.3377 92.32 60.0415 91.9814C60.8371 91.5993 61.49 91.7717 62.0003 92.4986C62.1019 92.6424 62.068 92.7342 61.8987 92.7739C61.6158 92.8409 61.3752 92.769 61.1769 92.5581C61.0632 92.4415 60.9266 92.3708 60.767 92.346C60.5638 92.3187 60.3994 92.3882 60.2736 92.5544C60.256 92.5787 60.244 92.6068 60.2386 92.6366C60.2333 92.6664 60.2347 92.6971 60.2427 92.7262C60.2508 92.7554 60.2653 92.7822 60.2851 92.8047C60.305 92.8272 60.3296 92.8446 60.3571 92.8558C61.1079 93.1423 62.3993 93.1981 62.0547 94.4111C62.0208 94.5252 61.9543 94.6133 61.8552 94.6753C61.0281 95.1764 60.2434 95.1169 59.501 94.4967C59.4771 94.4772 59.4573 94.453 59.4426 94.4256C59.4279 94.3982 59.4185 94.3681 59.4152 94.337C59.4118 94.3059 59.4145 94.2744 59.4229 94.2443C59.4314 94.2143 59.4456 94.1862 59.4647 94.1618L59.5336 94.0725C59.6763 93.8939 59.8359 93.8765 60.0124 94.0204C60.5324 94.452 60.987 94.5252 61.3764 94.24C61.3965 94.2257 61.4127 94.2063 61.4231 94.1835C61.4335 94.1608 61.4378 94.1356 61.4356 94.1106C61.4333 94.0856 61.4247 94.0617 61.4105 94.0412C61.3962 94.0208 61.3769 94.0046 61.3546 93.9944Z" fill="#151D28"/>
<path d="M63.3642 96H62.7112V92.134C62.7112 91.9504 62.7995 91.8524 62.976 91.84C63.1671 91.8252 63.3303 91.8772 63.4658 91.9963C63.5335 92.0583 63.6084 92.0683 63.6907 92.0261C64.5105 91.592 65.0872 91.7941 65.4209 92.6326C65.82 93.6372 65.2867 95.6093 63.7777 94.8503C63.4537 94.6866 63.3485 94.7808 63.4621 95.1331C63.5758 95.4853 63.5431 95.7743 63.3642 96ZM64.7861 93.094C64.7861 92.9302 64.7227 92.7731 64.6098 92.6572C64.4969 92.5414 64.3437 92.4763 64.184 92.4763H64.0607C63.901 92.4763 63.7478 92.5414 63.6349 92.6572C63.5219 92.7731 63.4585 92.9302 63.4585 93.094V93.7265C63.4585 93.8904 63.5219 94.0475 63.6349 94.1633C63.7478 94.2791 63.901 94.3442 64.0607 94.3442H64.184C64.3437 94.3442 64.4969 94.2791 64.6098 94.1633C64.7227 94.0475 64.7861 93.8904 64.7861 93.7265V93.094Z" fill="#151D28"/>
<path d="M71.0979 92.5433C70.8102 92.3002 70.5308 92.33 70.26 92.6326C70.1681 92.7368 70.0557 92.7963 69.9226 92.8112C69.8598 92.8186 69.7981 92.8261 69.7376 92.8335C69.5611 92.8534 69.4994 92.7765 69.5526 92.6028C69.8574 91.6019 71.1524 91.6019 71.7908 92.1749C71.9238 92.294 71.9903 92.4441 71.9903 92.6252L72.0121 94.72C72.0121 94.9185 71.919 94.9904 71.7327 94.9359C71.3265 94.8168 70.9141 94.818 70.4958 94.9396C69.9565 95.0958 69.5998 94.9011 69.4257 94.3554C69.3822 94.2115 69.387 94.0614 69.4402 93.9052C69.5805 93.4859 69.8634 93.2391 70.289 93.1647L70.9674 93.0456C71.3688 92.9762 71.4123 92.8087 71.0979 92.5433ZM71.2926 93.7571C71.2523 93.6482 71.1514 93.5681 71.0123 93.5342C70.8731 93.5003 70.707 93.5156 70.5506 93.5766C70.4731 93.6067 70.4003 93.6473 70.3363 93.6958C70.2724 93.7443 70.2185 93.7999 70.1778 93.8594C70.1372 93.9188 70.1105 93.981 70.0993 94.0424C70.088 94.1037 70.0925 94.163 70.1125 94.2169C70.1528 94.3258 70.2536 94.406 70.3928 94.4398C70.532 94.4737 70.698 94.4584 70.8545 94.3975C70.932 94.3673 71.0048 94.3268 71.0688 94.2782C71.1327 94.2297 71.1866 94.1741 71.2272 94.1147C71.2679 94.0552 71.2946 93.993 71.3058 93.9317C71.3171 93.8703 71.3126 93.811 71.2926 93.7571Z" fill="#151D28"/>
<path d="M27.4378 91.9173L27.1184 91.919C27.0021 91.9197 26.9084 92.0168 26.909 92.136L26.9221 94.7108C26.9228 94.83 27.0175 94.9261 27.1337 94.9255L27.4531 94.9238C27.5694 94.9232 27.6631 94.826 27.6625 94.7068L27.6494 92.132C27.6488 92.0128 27.554 91.9167 27.4378 91.9173Z" fill="#151D28"/>
<path d="M66.7696 91.9222L66.3486 91.9214C66.2564 91.9213 66.1815 91.9978 66.1813 92.0923L66.1768 94.7565C66.1767 94.851 66.2513 94.9278 66.3435 94.9279L66.7645 94.9287C66.8567 94.9289 66.9316 94.8524 66.9317 94.7578L66.9363 92.0937C66.9364 91.9991 66.8618 91.9224 66.7696 91.9222Z" fill="#151D28"/>
</g>
<defs>
<clipPath id="clip0_9_1459">
<rect width="74" height="96" fill="white"/>
</clipPath>
</defs>
</svg>
