<svg width="407" height="397" viewBox="0 0 407 397" fill="none" xmlns="http://www.w3.org/2000/svg">
<g opacity="0.42" clip-path="url(#clip0_384_777)">
<path d="M258.38 89.2839H148.712C146.212 89.2869 143.816 90.2803 142.049 92.0463C140.282 93.8122 139.288 96.2064 139.285 98.7038V342.27L138.028 342.653L111.125 350.886C109.849 351.275 108.472 351.142 107.295 350.517C106.118 349.892 105.238 348.825 104.847 347.552L24.8209 86.3386C24.4315 85.0645 24.5642 83.6879 25.19 82.5115C25.8157 81.3352 26.8833 80.4552 28.158 80.065L69.6163 67.3795L189.805 30.6169L231.263 17.9314C231.894 17.7374 232.557 17.6696 233.214 17.7319C233.872 17.7942 234.51 17.9854 235.093 18.2946C235.676 18.6037 236.193 19.0247 236.613 19.5335C237.033 20.0424 237.348 20.629 237.541 21.2598L257.997 88.0279L258.38 89.2839Z" fill="#F2F2F2"/>
<path d="M282.311 88.0278L257.658 7.55692C257.247 6.21612 256.577 4.96923 255.684 3.8875C254.792 2.80577 253.695 1.9104 252.456 1.25255C251.217 0.594707 249.86 0.187268 248.463 0.0535384C247.067 -0.0801917 245.657 0.0624068 244.316 0.473171L186.028 18.3019L65.8456 55.0708L7.5579 72.9058C4.85016 73.7366 2.58293 75.6071 1.25387 78.1067C-0.0751922 80.6063 -0.357503 83.5307 0.468915 86.238L84.7301 361.255C85.4014 363.44 86.7561 365.353 88.5951 366.712C90.4342 368.072 92.661 368.807 94.9487 368.809C96.0075 368.81 97.0603 368.651 98.0718 368.338L138.028 356.118L139.285 355.728V354.416L138.028 354.799L97.7012 367.139C95.3111 367.867 92.7296 367.618 90.523 366.446C88.3164 365.275 86.6648 363.277 85.9305 360.89L1.67578 85.8675C1.31197 84.685 1.18517 83.4423 1.30264 82.2107C1.42011 80.9791 1.77953 79.7827 2.36035 78.6902C2.94117 77.5976 3.73197 76.6302 4.68744 75.8435C5.64292 75.0567 6.74431 74.466 7.92856 74.1052L66.2163 56.2703L186.399 19.5076L244.687 1.67265C245.585 1.39872 246.519 1.25904 247.458 1.25817C249.474 1.26269 251.435 1.91201 253.054 3.11101C254.674 4.31002 255.866 5.9957 256.458 7.92116L280.998 88.0278L281.388 89.2838H282.695L282.311 88.0278Z" fill="#3F3D56"/>
<path d="M77.0975 80.2703C75.8863 80.2694 74.7072 79.8807 73.7332 79.1611C72.7593 78.4416 72.0417 77.429 71.6858 76.2721L63.5913 49.8513C63.3738 49.1416 63.2983 48.3961 63.3692 47.6572C63.4401 46.9183 63.6559 46.2007 64.0044 45.5452C64.3528 44.8897 64.8271 44.3092 65.4001 43.8369C65.9731 43.3646 66.6336 43.0097 67.3438 42.7926L177.911 8.96655C179.345 8.52917 180.895 8.67834 182.219 9.38131C183.543 10.0843 184.535 11.2836 184.975 12.7161L193.069 39.1371C193.507 40.5705 193.357 42.1186 192.654 43.442C191.951 44.7654 190.751 45.7559 189.317 46.1962L78.75 80.0222C78.2145 80.1864 77.6576 80.27 77.0975 80.2703Z" fill="#0496FF"/>
<path d="M119.5 28.231C126.441 28.231 132.069 22.6078 132.069 15.6712C132.069 8.73456 126.441 3.11133 119.5 3.11133C112.558 3.11133 106.931 8.73456 106.931 15.6712C106.931 22.6078 112.558 28.231 119.5 28.231Z" fill="#0496FF"/>
<path d="M119.5 23.6248C123.895 23.6248 127.459 20.064 127.459 15.6715C127.459 11.2791 123.895 7.71826 119.5 7.71826C115.104 7.71826 111.541 11.2791 111.541 15.6715C111.541 20.064 115.104 23.6248 119.5 23.6248Z" fill="white"/>
<path d="M378.72 365.6H166.308C164.892 365.599 163.534 365.036 162.533 364.035C161.531 363.034 160.968 361.678 160.966 360.263V105.926C160.968 104.511 161.531 103.154 162.532 102.153C163.534 101.152 164.892 100.589 166.308 100.588H378.72C380.137 100.59 381.494 101.152 382.496 102.153C383.497 103.154 384.06 104.511 384.062 105.926V360.263C384.06 361.678 383.497 363.034 382.496 364.035C381.494 365.036 380.137 365.599 378.72 365.6Z" fill="#E6E6E6"/>
<path d="M280.998 88.0278H148.711C145.879 88.0318 143.164 89.1579 141.162 91.1591C139.159 93.1604 138.032 95.8735 138.028 98.7037V354.799L139.285 354.416V98.7037C139.288 96.2063 140.282 93.8121 142.049 92.0462C143.816 90.2803 146.212 89.2869 148.711 89.2838H281.388L280.998 88.0278ZM396.317 88.0278H148.711C145.879 88.0318 143.164 89.1579 141.162 91.1591C139.159 93.1604 138.032 95.8735 138.028 98.7037V386.324C138.032 389.154 139.159 391.867 141.162 393.869C143.164 395.87 145.879 396.996 148.711 397H396.317C399.149 396.996 401.864 395.87 403.866 393.869C405.869 391.867 406.996 389.154 407 386.324V98.7037C406.996 95.8735 405.869 93.1604 403.866 91.1591C401.864 89.1579 399.149 88.0318 396.317 88.0278ZM405.743 386.324C405.74 388.821 404.746 391.216 402.979 392.981C401.212 394.747 398.816 395.741 396.317 395.744H148.711C146.212 395.741 143.816 394.747 142.049 392.981C140.282 391.216 139.288 388.821 139.285 386.324V98.7037C139.288 96.2063 140.282 93.8121 142.049 92.0462C143.816 90.2803 146.212 89.2869 148.711 89.2838H396.317C398.816 89.2869 401.212 90.2803 402.979 92.0462C404.746 93.8121 405.74 96.2063 405.743 98.7037V386.324Z" fill="#3F3D56"/>
<path d="M330.331 115.66H214.698C213.198 115.658 211.761 115.062 210.7 114.002C209.64 112.943 209.043 111.506 209.042 110.008V82.376C209.043 80.8776 209.64 79.441 210.7 78.3814C211.761 77.3218 213.198 76.7258 214.698 76.7241H330.331C331.83 76.7258 333.268 77.3218 334.328 78.3814C335.388 79.441 335.985 80.8776 335.986 82.376V110.008C335.985 111.506 335.388 112.943 334.328 114.002C333.268 115.062 331.83 115.658 330.331 115.66Z" fill="#0496FF"/>
<path d="M272.514 78.608C279.456 78.608 285.083 72.9847 285.083 66.0481C285.083 59.1115 279.456 53.4883 272.514 53.4883C265.573 53.4883 259.945 59.1115 259.945 66.0481C259.945 72.9847 265.573 78.608 272.514 78.608Z" fill="#0496FF"/>
<path d="M272.514 73.6982C276.742 73.6982 280.17 70.2731 280.17 66.0481C280.17 61.823 276.742 58.3979 272.514 58.3979C268.286 58.3979 264.858 61.823 264.858 66.0481C264.858 70.2731 268.286 73.6982 272.514 73.6982Z" fill="white"/>
</g>
<defs>
<clipPath id="clip0_384_777">
<rect width="407" height="397" fill="white"/>
</clipPath>
</defs>
</svg>
