<svg width="50" height="40" viewBox="0 0 50 40" fill="none" xmlns="http://www.w3.org/2000/svg">
<path d="M0 17.5781C0 7.89062 7.8125 0 17.5 0H20C27.9688 0 34.4531 6.25 34.9219 14.1406L39.4531 19.6875L40 20.3906V21.25V22.5V25H37.5H35V27.5L25 28.75V31.875L35 32.5V37.5H25V40H22.5H20H7.5H5V37.5V29.8438C1.79688 26.5625 0 22.1094 0 17.5781ZM27.5 17.5C28.8281 17.5 30 16.4062 30 15C30 13.6719 28.8281 12.5 27.5 12.5C26.0938 12.5 25 13.6719 25 15C25 16.4062 26.0938 17.5 27.5 17.5ZM36.25 30C36.25 28.9844 37.0312 28.125 38.125 28.125C39.1406 28.125 40 28.9844 40 30C40 31.0938 39.1406 31.875 38.125 31.875C37.0312 31.875 36.25 31.0938 36.25 30ZM48.125 28.125C49.1406 28.125 50 28.9844 50 30C50 31.0938 49.1406 31.875 48.125 31.875C47.0312 31.875 46.25 31.0938 46.25 30C46.25 28.9844 47.0312 28.125 48.125 28.125ZM46.25 37.5C46.25 36.4844 47.0312 35.625 48.125 35.625C49.1406 35.625 50 36.4844 50 37.5C50 38.5938 49.1406 39.375 48.125 39.375C47.0312 39.375 46.25 38.5938 46.25 37.5ZM43.125 24.375C44.1406 24.375 45 25.2344 45 26.25C45 27.3438 44.1406 28.125 43.125 28.125C42.0312 28.125 41.25 27.3438 41.25 26.25C41.25 25.2344 42.0312 24.375 43.125 24.375ZM46.25 22.5C46.25 21.4844 47.0312 20.625 48.125 20.625C49.1406 20.625 50 21.4844 50 22.5C50 23.5938 49.1406 24.375 48.125 24.375C47.0312 24.375 46.25 23.5938 46.25 22.5ZM43.125 31.875C44.1406 31.875 45 32.7344 45 33.75C45 34.8438 44.1406 35.625 43.125 35.625C42.0312 35.625 41.25 34.8438 41.25 33.75C41.25 32.7344 42.0312 31.875 43.125 31.875Z" fill="white"/>
</svg>
