<svg xmlns="http://www.w3.org/2000/svg" width="20" height="23" viewBox="0 0 20 23">
  <g id="Action-_-31---Action_-key_-lock_-password_-security-icon" data-name="Action-/-31---Action,-key,-lock,-password,-security-icon" transform="translate(-2 -0.5)">
    <path id="Path" d="M18.75,9H17.625V6.125C17.625,3.02,15.1,1.5,12,1.5S6.375,3.02,6.375,6.125V9H5.25A2.056,2.056,0,0,0,3,11v9.25A2.257,2.257,0,0,0,5.25,22.5h13.5A2.257,2.257,0,0,0,21,20.25V11A2.056,2.056,0,0,0,18.75,9Z" fill="none" stroke="#000" stroke-linecap="round" stroke-linejoin="round" stroke-width="2" fill-rule="evenodd"/>
    <line id="Path-2" data-name="Path" x2="11.25" transform="translate(6.375 9)" fill="none" stroke="#000" stroke-linecap="round" stroke-linejoin="round" stroke-width="2"/>
    <path id="Path-3" data-name="Path" d="M12,17.938a2.25,2.25,0,1,1,2.25-2.25A2.257,2.257,0,0,1,12,17.938Z" fill="none" stroke="#000" stroke-linecap="round" stroke-linejoin="round" stroke-width="2" fill-rule="evenodd"/>
  </g>
</svg>
