<svg width="20" height="20" viewBox="0 0 20 20" fill="none" xmlns="http://www.w3.org/2000/svg">
<g clip-path="url(#clip0_63_86)">
<path d="M19.6846 5.55024L17.1906 3.05624L18.7352 1.51158C19.1799 1.05024 18.4932 0.357576 18.0286 0.804243L9.80188 9.03091C9.32855 9.49358 10.0426 10.2149 10.5092 9.73758L13.9526 6.29491L16.4466 8.78824C16.9086 9.21891 17.5839 8.54358 17.1532 8.08158L16.5119 7.44024L18.3366 5.61691L18.9779 6.25824C19.4432 6.71824 20.1459 6.01424 19.6846 5.55024ZM15.8052 6.73358L14.6592 5.58758L16.4832 3.76358L17.6292 4.90891L15.8052 6.73358ZM5.41122 8.88358C4.72217 8.8834 4.03983 9.01899 3.4032 9.2826C2.76656 9.54621 2.18811 9.93267 1.70087 10.4199C1.21364 10.9071 0.827181 11.4856 0.563573 12.1222C0.299965 12.7589 0.164376 13.4412 0.164551 14.1302C0.427218 21.0782 10.3986 21.0796 10.6566 14.1302C10.6567 13.4413 10.5212 12.7591 10.2577 12.1225C9.99413 11.486 9.60779 10.9076 9.1207 10.4204C8.63361 9.93316 8.05531 9.54667 7.41883 9.28298C6.78235 9.0193 6.10016 8.88358 5.41122 8.88358ZM5.41122 18.3762C-0.212116 18.1809 -0.206116 10.0816 5.40988 9.88358C11.0319 10.0776 11.0292 18.1822 5.41122 18.3762Z" fill="#EDF4FF"/>
</g>
<defs>
<clipPath id="clip0_63_86">
<rect width="20" height="20" fill="white"/>
</clipPath>
</defs>
</svg>
