<svg width="27" height="25" viewBox="0 0 27 25" fill="none" xmlns="http://www.w3.org/2000/svg">
<path d="M0 1.5C0 0.703125 0.65625 0 1.5 0H3H15H16.5C17.2969 0 18 0.703125 18 1.5C18 2.34375 17.2969 3 16.5 3V3.51562C16.5 5.53125 15.7031 7.45312 14.2969 8.85938L11.1094 12L12.7969 13.6875C12.2812 14.7656 12 15.9375 12 17.1562L9 14.1562L5.8125 17.3438C4.96875 18.1875 4.5 19.3125 4.5 20.5312V21.0469H12.8906C13.5 22.2188 14.3906 23.25 15.4688 24.0469H15H3H1.5C0.65625 24.0469 0 23.3438 0 22.5469C0 21.7031 0.65625 21.0469 1.5 21.0469V20.4844C1.5 18.5156 2.25 16.5938 3.65625 15.1875L6.84375 12L3.65625 8.85938C2.25 7.45312 1.5 5.53125 1.5 3.51562V3C0.65625 3 0 2.34375 0 1.5ZM4.5 3V3.51562C4.5 4.73438 4.96875 5.85938 5.8125 6.70312L9 9.89062L12.1406 6.70312C12.9844 5.85938 13.5 4.73438 13.5 3.51562V3H4.5ZM13.5 17.25C13.5 14.8594 14.7656 12.6562 16.875 11.4375C18.9375 10.2188 21.5156 10.2188 23.625 11.4375C25.6875 12.6562 27 14.8594 27 17.25C27 19.6875 25.6875 21.8906 23.625 23.1094C21.5156 24.3281 18.9375 24.3281 16.875 23.1094C14.7656 21.8906 13.5 19.6875 13.5 17.25ZM20.25 13.5C19.8281 13.5 19.5 13.875 19.5 14.25V17.25C19.5 17.6719 19.8281 18 20.25 18H22.5C22.875 18 23.25 17.6719 23.25 17.25C23.25 16.875 22.875 16.5 22.5 16.5H21V14.25C21 13.875 20.625 13.5 20.25 13.5Z" fill="#F17105"/>
</svg>
