<svg width="1170" height="329" viewBox="0 0 1170 329" fill="none" xmlns="http://www.w3.org/2000/svg">
<g style="mix-blend-mode:multiply">
<mask id="mask0_210_228" style="mask-type:luminance" maskUnits="userSpaceOnUse" x="0" y="0" width="1170" height="329">
<rect width="1170" height="329" rx="10" fill="white"/>
</mask>
<g mask="url(#mask0_210_228)">
<path d="M-31.8264 188.372C-27.0622 188.372 -24.9195 194.216 -15.3323 192.473C-5.74508 190.731 -3.12506 182.036 3.0311 182.036C11.2941 182.036 23.2438 202.267 28.8605 196.594C40.7949 184.542 46.2966 25.5806 46.2966 25.5806C46.2966 25.5806 54.2932 277.366 54.2932 300.679C54.2932 323.992 57.867 199.498 70.7437 188.372C83.6203 177.246 85.3859 178.13 88.8606 174.954C110.981 154.736 107.555 129.334 121.337 129.334C134.166 129.334 137.033 174.954 152.608 188.372C157.788 192.834 162.873 184.293 168.086 184.581C172.583 184.83 174.106 188.372 178.834 188.372" stroke="#FF0000" stroke-width="3" stroke-linejoin="round"/>
<path d="M178.834 188.372C183.598 188.372 185.741 194.216 195.328 192.473C204.916 190.731 207.536 182.036 213.692 182.036C221.955 182.036 233.904 202.267 239.521 196.594C251.456 184.542 256.957 25.5806 256.957 25.5806C256.957 25.5806 264.954 277.366 264.954 300.679C264.954 323.992 268.528 199.498 281.404 188.372C294.281 177.246 296.046 178.13 299.521 174.954C321.642 154.736 318.216 129.334 331.997 129.334C344.826 129.334 347.694 174.954 363.269 188.372C368.448 192.834 373.533 184.293 378.747 184.581C383.244 184.83 384.766 188.372 389.495 188.372" stroke="#FF0000" stroke-width="3" stroke-linejoin="round"/>
<path d="M389.495 188.372C394.259 188.372 396.402 194.216 405.989 192.473C415.576 190.731 418.196 182.036 424.352 182.036C432.615 182.036 444.565 202.267 450.182 196.594C462.116 184.542 467.618 25.5806 467.618 25.5806C467.618 25.5806 475.614 277.366 475.614 300.679C475.614 323.992 479.188 199.498 492.065 188.372C504.941 177.246 506.707 178.13 510.182 174.954C532.302 154.736 528.877 129.334 542.658 129.334C555.487 129.334 558.354 174.954 573.929 188.372C579.109 192.834 584.194 184.293 589.407 184.581C593.904 184.83 595.427 188.372 600.155 188.372" stroke="#FF0000" stroke-width="3" stroke-linejoin="round"/>
<path d="M600.155 188.372C604.92 188.372 607.062 194.216 616.65 192.473C626.237 190.731 628.857 182.036 635.013 182.036C643.276 182.036 655.226 202.267 660.842 196.594C672.777 184.542 678.278 25.5806 678.278 25.5806C678.278 25.5806 686.275 277.366 686.275 300.679C686.275 323.992 689.849 199.498 702.726 188.372C715.602 177.246 717.368 178.13 720.842 174.954C742.963 154.736 739.537 129.334 753.319 129.334C766.147 129.334 769.015 174.954 784.59 188.372C789.769 192.834 794.855 184.293 800.068 184.581C804.565 184.83 806.087 188.372 810.816 188.372" stroke="#FF0000" stroke-width="3" stroke-linejoin="round"/>
<path d="M810.816 188.372C815.58 188.372 817.723 194.216 827.31 192.473C836.897 190.731 839.517 182.036 845.674 182.036C853.937 182.036 865.886 202.267 871.503 196.594C883.437 184.542 888.939 25.5806 888.939 25.5806C888.939 25.5806 896.936 277.366 896.936 300.679C896.936 323.992 900.51 199.498 913.386 188.372C926.263 177.246 928.028 178.13 931.503 174.954C953.624 154.736 950.198 129.334 963.979 129.334C976.808 129.334 979.676 174.954 995.251 188.372C1000.43 192.834 1005.52 184.293 1010.73 184.581C1015.23 184.83 1016.75 188.372 1021.48 188.372" stroke="#FF0000" stroke-width="3" stroke-linejoin="round"/>
<path d="M1021.48 188.372C1026.24 188.372 1028.38 194.216 1037.97 192.473C1047.56 190.731 1050.18 182.036 1056.33 182.036C1064.6 182.036 1076.55 202.267 1082.16 196.594C1094.1 184.542 1099.6 25.5806 1099.6 25.5806C1099.6 25.5806 1107.6 277.366 1107.6 300.679C1107.6 323.992 1111.17 199.498 1124.05 188.372C1136.92 177.246 1138.69 178.13 1142.16 174.954C1164.28 154.736 1160.86 129.334 1174.64 129.334C1187.47 129.334 1190.34 174.954 1205.91 188.372C1211.09 192.834 1216.18 184.293 1221.39 184.581C1225.89 184.83 1227.41 188.372 1232.14 188.372" stroke="#FF0000" stroke-width="3" stroke-linejoin="round"/>
</g>
</g>
</svg>
