<svg width="24" height="24" viewBox="0 0 24 24" fill="none" xmlns="http://www.w3.org/2000/svg">
<g clip-path="url(#clip0_294_518)">
<path d="M7.5 0H0V7.5H7.5V0ZM6 6H1.5V1.5H6V6Z" fill="#121212"/>
<path d="M3 3H4.5V4.5H3V3ZM16.5 0V7.5H24V0H16.5ZM22.5 6H18V1.5H22.5V6Z" fill="#121212"/>
<path d="M19.5 3H21V4.5H19.5V3ZM0 24H7.5V16.5H0V24ZM1.5 18H6V22.5H1.5V18Z" fill="#121212"/>
<path d="M3 19.5H4.5V21H3V19.5ZM12 0H15V1.5H12V0ZM12 6H13.5V4.5H15V3H10.5V1.5H9V4.5H12V6ZM9 6H10.5V7.5H9V6ZM15 7.5H13.5V9H9V10.5H15V7.5ZM1.5 13.5H3V12H1.5V9H0V15H1.5V13.5ZM3 9H4.5V10.5H3V9Z" fill="#121212"/>
<path d="M9 15H12V13.5H10.5V12H7.5V9H6V12H4.5V15H6V13.5H9V15ZM13.5 12H15V15H13.5V12ZM13.5 16.5H9V18H12V22.5H9V24H13.5V22.5H16.5V21H13.5V16.5Z" fill="#121212"/>
<path d="M9 19.5H10.5V21H9V19.5ZM15 16.5H16.5V19.5H15V16.5ZM22.5 19.5H18V24H19.5V21H22.5V19.5Z" fill="#121212"/>
<path d="M21 22.5H24V24H21V22.5ZM22.5 16.5H24V18H22.5V16.5ZM18 18H19.5V13.5H16.5V15H18V18ZM21 10.5H19.5V9H18V10.5H16.5V12H22.5V10.5H24V9H21V10.5ZM21 13.5H24V15H21V13.5Z" fill="#121212"/>
</g>
<defs>
<clipPath id="clip0_294_518">
<rect width="24" height="24" fill="white"/>
</clipPath>
</defs>
</svg>
