<svg width="18" height="19" viewBox="0 0 18 19" fill="none" xmlns="http://www.w3.org/2000/svg">
<path d="M0 2.625C0 1.60938 0.820312 0.75 1.875 0.75H5.625C6.64062 0.75 7.5 1.60938 7.5 2.625V6.375C7.5 7.42969 6.64062 8.25 5.625 8.25H1.875C0.820312 8.25 0 7.42969 0 6.375V2.625ZM2.5 3.25V5.75H5V3.25H2.5ZM0 12.625C0 11.6094 0.820312 10.75 1.875 10.75H5.625C6.64062 10.75 7.5 11.6094 7.5 12.625V16.375C7.5 17.4297 6.64062 18.25 5.625 18.25H1.875C0.820312 18.25 0 17.4297 0 16.375V12.625ZM2.5 13.25V15.75H5V13.25H2.5ZM11.875 0.75H15.625C16.6406 0.75 17.5 1.60938 17.5 2.625V6.375C17.5 7.42969 16.6406 8.25 15.625 8.25H11.875C10.8203 8.25 10 7.42969 10 6.375V2.625C10 1.60938 10.8203 0.75 11.875 0.75ZM15 3.25H12.5V5.75H15V3.25ZM10 11.375C10 11.0625 10.2734 10.75 10.625 10.75H13.125C13.4375 10.75 13.75 11.0625 13.75 11.375C13.75 11.7266 14.0234 12 14.375 12H15.625C15.9375 12 16.25 11.7266 16.25 11.375C16.25 11.0625 16.5234 10.75 16.875 10.75C17.1875 10.75 17.5 11.0625 17.5 11.375V15.125C17.5 15.4766 17.1875 15.75 16.875 15.75H14.375C14.0234 15.75 13.75 15.4766 13.75 15.125C13.75 14.8125 13.4375 14.5 13.125 14.5C12.7734 14.5 12.5 14.8125 12.5 15.125V17.625C12.5 17.9766 12.1875 18.25 11.875 18.25H10.625C10.2734 18.25 10 17.9766 10 17.625V11.375ZM14.375 18.25C14.0234 18.25 13.75 17.9766 13.75 17.625C13.75 17.3125 14.0234 17 14.375 17C14.6875 17 15 17.3125 15 17.625C15 17.9766 14.6875 18.25 14.375 18.25ZM16.875 18.25C16.5234 18.25 16.25 17.9766 16.25 17.625C16.25 17.3125 16.5234 17 16.875 17C17.1875 17 17.5 17.3125 17.5 17.625C17.5 17.9766 17.1875 18.25 16.875 18.25Z" fill="#717171"/>
</svg>
