<svg width="44" height="45" viewBox="0 0 44 45" fill="none" xmlns="http://www.w3.org/2000/svg">
<path d="M17.1875 1.9375H1.5625V17.5625H17.1875V1.9375ZM1.5625 0.375H17.1875H18.75V1.9375V17.5625V19.125H17.1875H1.5625H0V17.5625V1.9375V0.375H1.5625ZM17.1875 26.9375H1.5625V42.5625H17.1875V26.9375ZM1.5625 25.375H17.1875H18.75V26.9375V42.5625V44.125H17.1875H1.5625H0V42.5625V26.9375V25.375H1.5625ZM26.5625 1.9375V17.5625H42.1875V1.9375H26.5625ZM25 0.375H26.5625H42.1875H43.75V1.9375V17.5625V19.125H42.1875H26.5625H25V17.5625V1.9375V0.375ZM25 25.375H25.7812H30.4688H31.25V26.1562V36.3125H34.375V26.1562V25.375H35.1562H39.8438H40.625V26.1562V36.3125H42.9688H43.75V37.875H42.9688H39.8438H39.0625V37.0938V26.9375H35.9375V37.0938V37.875H35.1562H30.4688H29.6875V37.0938V26.9375H26.5625V43.3438V44.125H25V43.3438V26.1562V25.375ZM32.8125 8.1875V11.3125H35.9375V8.1875H32.8125ZM31.25 6.625H32.8125H35.9375H37.5V8.1875V11.3125V12.875H35.9375H32.8125H31.25V11.3125V8.1875V6.625ZM10.9375 8.1875H7.8125V11.3125H10.9375V8.1875ZM7.8125 6.625H10.9375H12.5V8.1875V11.3125V12.875H10.9375H7.8125H6.25V11.3125V8.1875V6.625H7.8125ZM7.8125 33.1875V36.3125H10.9375V33.1875H7.8125ZM6.25 31.625H7.8125H10.9375H12.5V33.1875V36.3125V37.875H10.9375H7.8125H6.25V36.3125V33.1875V31.625ZM31.25 41H34.375V44.125H31.25V41ZM43.75 41V44.125H40.625V41H43.75Z" fill="#717171"/>
</svg>
