<svg width="16" height="16" viewBox="0 0 16 16" fill="none" xmlns="http://www.w3.org/2000/svg">
<path d="M5.33331 3.83337C5.05998 3.83337 4.83331 3.60671 4.83331 3.33337V1.33337C4.83331 1.06004 5.05998 0.833374 5.33331 0.833374C5.60665 0.833374 5.83331 1.06004 5.83331 1.33337V3.33337C5.83331 3.60671 5.60665 3.83337 5.33331 3.83337Z" fill="#8A99AA"/>
<path d="M10.6667 3.83337C10.3934 3.83337 10.1667 3.60671 10.1667 3.33337V1.33337C10.1667 1.06004 10.3934 0.833374 10.6667 0.833374C10.94 0.833374 11.1667 1.06004 11.1667 1.33337V3.33337C11.1667 3.60671 10.94 3.83337 10.6667 3.83337Z" fill="#8A99AA"/>
<path d="M10 7.83337H4.66669C4.39335 7.83337 4.16669 7.60671 4.16669 7.33337C4.16669 7.06004 4.39335 6.83337 4.66669 6.83337H10C10.2734 6.83337 10.5 7.06004 10.5 7.33337C10.5 7.60671 10.2734 7.83337 10 7.83337Z" fill="#8A99AA"/>
<path d="M8.00002 10.5H4.66669C4.39335 10.5 4.16669 10.2733 4.16669 10C4.16669 9.72667 4.39335 9.5 4.66669 9.5H8.00002C8.27335 9.5 8.50002 9.72667 8.50002 10C8.50002 10.2733 8.27335 10.5 8.00002 10.5Z" fill="#8A99AA"/>
<path d="M10 15.1667H6C2.25333 15.1667 1.5 13.4 1.5 10.5467V6.43337C1.5 3.27337 2.56667 1.98671 5.30667 1.83337H10.6667C13.4333 1.98671 14.5 3.27337 14.5 6.43337V10.6667C14.5 10.94 14.2733 11.1667 14 11.1667C13.7267 11.1667 13.5 10.94 13.5 10.6667V6.43337C13.5 3.52671 12.5333 2.94004 10.64 2.83337H5.33333C3.46667 2.94004 2.5 3.52671 2.5 6.43337V10.5467C2.5 13.1 2.98667 14.1667 6 14.1667H10C10.2733 14.1667 10.5 14.3934 10.5 14.6667C10.5 14.94 10.2733 15.1667 10 15.1667Z" fill="#8A99AA"/>
<path d="M10 15.1666C9.93333 15.1666 9.87333 15.1533 9.80667 15.1266C9.62 15.0466 9.5 14.8666 9.5 14.6666V12.6666C9.5 11.0533 10.3867 10.1666 12 10.1666H14C14.2 10.1666 14.3867 10.2866 14.46 10.4733C14.54 10.66 14.4933 10.8733 14.3533 11.02L10.3533 15.02C10.26 15.1133 10.1333 15.1666 10 15.1666ZM12 11.1666C10.9467 11.1666 10.5 11.6133 10.5 12.6666V13.46L12.7933 11.1666H12Z" fill="#8A99AA"/>
</svg>
