<svg width="50" height="41" viewBox="0 0 50 41" fill="none" xmlns="http://www.w3.org/2000/svg">
<path d="M27.5 2.5V5V14.9219L30 16.4844V10V7.5H32.5H36.875H38.125L38.8281 8.51562L36.875 10.0781C38.8281 8.51562 38.8281 8.51562 38.8281 8.51562L38.9062 8.59375L38.9844 8.67188C39.0625 8.82812 39.1406 8.98438 39.2969 9.14062C39.5312 9.53125 39.9219 10.0781 40.3906 10.7812C41.3281 12.1094 42.5781 14.0625 43.8281 16.3281C46.4062 20.7031 49.2969 26.7188 49.9219 32.2656C49.9219 32.3438 50 32.4219 50 32.5781V33.125C50 36.9531 46.875 40.0781 43.0469 40.0781C42.4219 40.0781 41.875 40 41.3281 39.8438L31.875 37.5L30 36.9531V35V25.3906L38.125 30.625L39.4531 28.4375L37.3438 27.1094L25 19.2188L12.5781 27.1094L10.4688 28.5156L11.7969 30.625L20 25.3906V35V36.9531L18.0469 37.4219L8.59375 39.8438C8.04688 40 7.5 40 6.95312 40C3.04688 40 0 36.9531 0 33.0469V32.5C0 32.4219 0 32.3438 0 32.1875C0.703125 26.7188 3.51562 20.7031 6.09375 16.3281C7.34375 14.0625 8.59375 12.1094 9.53125 10.7031C10 10.0781 10.3906 9.53125 10.625 9.14062C10.7812 8.90625 10.8594 8.82812 10.9375 8.67188L11.0938 8.59375V8.51562C11.0938 8.51562 11.0938 8.51562 13.125 10L11.0938 8.51562L11.875 7.5H13.125H17.5H20V10V16.4844L22.5 14.9219V5V2.5V0H27.5V2.5Z" fill="white"/>
</svg>
