<svg width="20" height="21" viewBox="0 0 20 21" fill="none" xmlns="http://www.w3.org/2000/svg">
<path d="M3.75 2.6875C3.75 1.51562 4.72656 0.5 5.9375 0.5H14.4531C15.0391 0.5 15.5859 0.734375 16.0156 1.16406L19.3359 4.48438C19.7656 4.91406 20 5.46094 20 6.04688V14.5625C20 15.7734 18.9844 16.75 17.8125 16.75H5.9375C4.72656 16.75 3.75 15.7734 3.75 14.5625V2.6875ZM7.5 3C6.79688 3 6.25 3.58594 6.25 4.25V5.5C6.25 6.20312 6.79688 6.75 7.5 6.75H13.75C14.4141 6.75 15 6.20312 15 5.5V4.25C15 3.58594 14.4141 3 13.75 3H7.5ZM14.375 11.75C14.375 10.8906 13.8672 10.0703 13.125 9.60156C12.3438 9.17188 11.3672 9.17188 10.625 9.60156C9.84375 10.0703 9.375 10.8906 9.375 11.75C9.375 12.6484 9.84375 13.4688 10.625 13.9375C11.3672 14.3672 12.3438 14.3672 13.125 13.9375C13.8672 13.4688 14.375 12.6484 14.375 11.75ZM1.875 5.1875V15.1875C1.875 17.1016 3.39844 18.625 5.3125 18.625H15.3125C15.8203 18.625 16.25 19.0547 16.25 19.5625C16.25 20.1094 15.8203 20.5 15.3125 20.5H5.3125C2.34375 20.5 0 18.1562 0 15.1875V5.1875C0 4.67969 0.390625 4.25 0.9375 4.25C1.44531 4.25 1.875 4.67969 1.875 5.1875Z" fill="white"/>
</svg>
