<svg width="12" height="12" viewBox="0 0 12 12" fill="none" xmlns="http://www.w3.org/2000/svg">
<path d="M9.14498 11.375H2.85497C1.15497 11.375 1.06497 10.44 0.989975 9.685L0.789975 7.18C0.744975 6.695 0.884975 6.21 1.19497 5.82C1.56497 5.37 2.08997 5.125 2.65497 5.125H9.34498C9.89998 5.125 10.425 5.37 10.78 5.795L10.865 5.91C11.135 6.28 11.255 6.73 11.21 7.185L11.01 9.68C10.935 10.44 10.845 11.375 9.14498 11.375ZM2.65497 5.875C2.31997 5.875 1.99997 6.025 1.78997 6.285L1.75497 6.32C1.59497 6.525 1.50997 6.815 1.53997 7.115L1.73997 9.62C1.80997 10.35 1.83997 10.625 2.85497 10.625H9.14498C10.165 10.625 10.19 10.35 10.26 9.615L10.46 7.11C10.49 6.815 10.405 6.52 10.21 6.29L10.16 6.23C9.93497 5.995 9.64998 5.875 9.33998 5.875H2.65497Z" fill="white"/>
<path d="M10.25 6.11001C10.045 6.11001 9.875 5.94001 9.875 5.73501V4.84001C9.875 3.35001 9.615 3.09001 8.125 3.09001H6.85C6.285 3.09001 6.09 2.89001 5.875 2.60501L5.23 1.75001C5.01 1.46001 4.96 1.39001 4.51 1.39001H3.875C2.385 1.39001 2.125 1.65001 2.125 3.14001V5.71501C2.125 5.92001 1.955 6.09001 1.75 6.09001C1.545 6.09001 1.375 5.92001 1.375 5.71501V3.14001C1.375 1.22501 1.96 0.640015 3.875 0.640015H4.515C5.285 0.640015 5.525 0.890015 5.835 1.30001L6.475 2.15001C6.61 2.33001 6.62 2.34001 6.855 2.34001H8.13C10.045 2.34001 10.63 2.92501 10.63 4.84001V5.73501C10.625 5.94001 10.455 6.11001 10.25 6.11001Z" fill="white"/>
<path d="M7.28497 8.875H4.71497C4.50997 8.875 4.33997 8.705 4.33997 8.5C4.33997 8.295 4.50997 8.125 4.71497 8.125H7.28497C7.48997 8.125 7.65997 8.295 7.65997 8.5C7.65997 8.705 7.49497 8.875 7.28497 8.875Z" fill="white"/>
</svg>
