<svg width="24" height="24" viewBox="0 0 24 24" fill="none" xmlns="http://www.w3.org/2000/svg">
<path fill-rule="evenodd" clip-rule="evenodd" d="M18.154 19.457C18.862 19.457 19.436 18.881 19.436 18.171V16.114C19.4307 16.0097 19.4466 15.9054 19.4829 15.8075C19.5191 15.7096 19.5749 15.62 19.6469 15.5443C19.7188 15.4687 19.8054 15.4084 19.9013 15.3672C19.9973 15.326 20.1006 15.3048 20.205 15.3048C20.3094 15.3048 20.4128 15.326 20.5087 15.3672C20.6047 15.4084 20.6913 15.4687 20.7632 15.5443C20.8351 15.62 20.8909 15.7096 20.9272 15.8075C20.9634 15.9054 20.9793 16.0097 20.974 16.114V18.171C20.9751 18.9201 20.6786 19.6389 20.1498 20.1694C19.621 20.6999 18.9031 20.9987 18.154 21H16.103C15.8984 21 15.7022 20.9187 15.5575 20.774C15.4128 20.6293 15.3315 20.4331 15.3315 20.2285C15.3315 20.0239 15.4128 19.8277 15.5575 19.683C15.7022 19.5383 15.8984 19.457 16.103 19.457H18.154ZM18.154 4.543C18.862 4.543 19.436 5.118 19.436 5.829V7.886C19.4307 7.99029 19.4466 8.09456 19.4829 8.19249C19.5191 8.29042 19.5749 8.37996 19.6469 8.45565C19.7188 8.53135 19.8054 8.59162 19.9013 8.6328C19.9973 8.67399 20.1006 8.69523 20.205 8.69523C20.3094 8.69523 20.4128 8.67399 20.5087 8.6328C20.6047 8.59162 20.6913 8.53135 20.7632 8.45565C20.8351 8.37996 20.8909 8.29042 20.9272 8.19249C20.9634 8.09456 20.9793 7.99029 20.974 7.886V5.829C20.9751 5.07994 20.6786 4.36112 20.1498 3.8306C19.621 3.30009 18.9031 3.00133 18.154 3H16.103C15.8984 3 15.7022 3.08128 15.5575 3.22597C15.4128 3.37065 15.3315 3.56689 15.3315 3.7715C15.3315 3.97611 15.4128 4.17235 15.5575 4.31703C15.7022 4.46172 15.8984 4.543 16.103 4.543H18.154ZM5.84602 19.457C5.67741 19.4567 5.51049 19.4233 5.35481 19.3585C5.19913 19.2937 5.05773 19.1989 4.93868 19.0795C4.81964 18.9601 4.72528 18.8184 4.661 18.6625C4.59671 18.5066 4.56376 18.3396 4.56402 18.171V16.114C4.56934 16.0097 4.5534 15.9054 4.51715 15.8075C4.48091 15.7096 4.42512 15.62 4.35319 15.5443C4.28126 15.4687 4.19469 15.4084 4.09873 15.3672C4.00277 15.326 3.89944 15.3048 3.79502 15.3048C3.6906 15.3048 3.58727 15.326 3.49132 15.3672C3.39536 15.4084 3.30879 15.4687 3.23685 15.5443C3.16492 15.62 3.10914 15.7096 3.07289 15.8075C3.03665 15.9054 3.0207 16.0097 3.02602 16.114V18.171C3.02496 18.9201 3.32144 19.6389 3.85026 20.1694C4.37909 20.6999 5.09696 20.9987 5.84602 21H7.89702C8.10164 21 8.29787 20.9187 8.44256 20.774C8.58724 20.6293 8.66852 20.4331 8.66852 20.2285C8.66852 20.0239 8.58724 19.8277 8.44256 19.683C8.29787 19.5383 8.10164 19.457 7.89702 19.457H5.84602ZM5.84602 4.543C5.13802 4.543 4.56402 5.118 4.56402 5.829V7.886C4.56934 7.99029 4.5534 8.09456 4.51715 8.19249C4.48091 8.29042 4.42512 8.37996 4.35319 8.45565C4.28126 8.53135 4.19469 8.59162 4.09873 8.6328C4.00277 8.67399 3.89944 8.69523 3.79502 8.69523C3.6906 8.69523 3.58727 8.67399 3.49132 8.6328C3.39536 8.59162 3.30879 8.53135 3.23685 8.45565C3.16492 8.37996 3.10914 8.29042 3.07289 8.19249C3.03665 8.09456 3.0207 7.99029 3.02602 7.886V5.829C3.02496 5.07994 3.32144 4.36112 3.85026 3.8306C4.37909 3.30009 5.09696 3.00133 5.84602 3H7.89702C8.10164 3 8.29787 3.08128 8.44256 3.22597C8.58724 3.37065 8.66852 3.56689 8.66852 3.7715C8.66852 3.97611 8.58724 4.17235 8.44256 4.31703C8.29787 4.46172 8.10164 4.543 7.89702 4.543H5.84602ZM22 12C22.0002 12.1012 21.9803 12.2014 21.9417 12.295C21.9031 12.3885 21.8464 12.4735 21.7748 12.5451C21.7033 12.6167 21.6184 12.6735 21.5249 12.7123C21.4314 12.751 21.3312 12.771 21.23 12.771H2.77002C2.56554 12.771 2.36943 12.6898 2.22484 12.5452C2.08025 12.4006 1.99902 12.2045 1.99902 12C1.99902 11.7955 2.08025 11.5994 2.22484 11.4548C2.36943 11.3102 2.56554 11.229 2.77002 11.229H21.23C21.3312 11.229 21.4314 11.249 21.5249 11.2877C21.6184 11.3265 21.7033 11.3833 21.7748 11.4549C21.8464 11.5265 21.9031 11.6115 21.9417 11.705C21.9803 11.7986 22.0002 11.8988 22 12Z" fill="#121212"/>
</svg>
