<svg width="16" height="16" viewBox="0 0 16 16" fill="none" xmlns="http://www.w3.org/2000/svg">
<g clip-path="url(#clip0_9_1539)">
<path d="M0.195333 14.862L4.17467 10.8826C3.09025 9.55637 2.55708 7.86404 2.68544 6.15568C2.81379 4.44733 3.59386 2.85366 4.86428 1.70432C6.1347 0.554984 7.79827 -0.0620951 9.51091 -0.0192739C11.2235 0.0235473 12.8542 0.722992 14.0656 1.93439C15.277 3.14578 15.9764 4.77644 16.0193 6.48907C16.0621 8.2017 15.445 9.86528 14.2957 11.1357C13.1463 12.4061 11.5526 13.1862 9.84429 13.3145C8.13594 13.4429 6.4436 12.9097 5.11733 11.8253L1.138 15.8046C1.01227 15.9261 0.843863 15.9933 0.669065 15.9918C0.494267 15.9902 0.32706 15.9201 0.203454 15.7965C0.0798483 15.6729 0.00973511 15.5057 0.00821686 15.3309C0.0066967 15.1561 0.0738935 14.9877 0.195333 14.862ZM9.33333 12C10.3882 12 11.4193 11.6872 12.2964 11.1011C13.1734 10.5151 13.857 9.68216 14.2607 8.70762C14.6644 7.73308 14.77 6.66073 14.5642 5.62616C14.3584 4.5916 13.8505 3.64129 13.1046 2.89541C12.3587 2.14953 11.4084 1.64158 10.3738 1.43579C9.33925 1.23 8.26689 1.33562 7.29236 1.73929C6.31782 2.14295 5.48486 2.82654 4.89883 3.7036C4.31279 4.58066 4 5.61181 4 6.66664C4.00159 8.08064 4.564 9.43628 5.56385 10.4361C6.5637 11.436 7.91933 11.9984 9.33333 12Z" fill="#5597F5"/>
</g>
<defs>
<clipPath id="clip0_9_1539">
<rect width="16" height="16" fill="white" transform="matrix(-1 0 0 1 16 0)"/>
</clipPath>
</defs>
</svg>
