<svg width="32" height="32" viewBox="0 0 32 32" fill="none" xmlns="http://www.w3.org/2000/svg">
<circle cx="16" cy="16" r="16" fill="#F6F6F6"/>
<path d="M15.6666 22.5C11.9 22.5 8.83331 19.4333 8.83331 15.6667C8.83331 11.9 11.9 8.83334 15.6666 8.83334C19.4333 8.83334 22.5 11.9 22.5 15.6667C22.5 19.4333 19.4333 22.5 15.6666 22.5ZM15.6666 9.83334C12.4466 9.83334 9.83331 12.4533 9.83331 15.6667C9.83331 18.88 12.4466 21.5 15.6666 21.5C18.8866 21.5 21.5 18.88 21.5 15.6667C21.5 12.4533 18.8866 9.83334 15.6666 9.83334Z" fill="#121212"/>
<path d="M22.6666 23.1667C22.54 23.1667 22.4133 23.12 22.3133 23.02L20.98 21.6867C20.7866 21.4933 20.7866 21.1733 20.98 20.98C21.1733 20.7867 21.4933 20.7867 21.6866 20.98L23.02 22.3133C23.2133 22.5067 23.2133 22.8267 23.02 23.02C22.92 23.12 22.7933 23.1667 22.6666 23.1667Z" fill="#121212"/>
</svg>
