<svg width="40" height="41" viewBox="0 0 40 41" fill="none" xmlns="http://www.w3.org/2000/svg">
<path d="M35 8.5C35 7.17188 33.8281 6 32.5 6C31.0938 6 30 7.17188 30 8.5C30 9.90625 31.0938 11 32.5 11C33.8281 11 35 9.90625 35 8.5ZM25 8.5C25 5.84375 26.4062 3.42188 28.75 2.01562C31.0156 0.6875 33.9062 0.6875 36.25 2.01562C38.5156 3.42188 40 5.84375 40 8.5C40 11.2344 38.5156 13.6562 36.25 15.0625C33.9062 16.3906 31.0156 16.3906 28.75 15.0625C26.4062 13.6562 25 11.2344 25 8.5ZM11.25 6C9.14062 6 7.5 7.71875 7.5 9.75V22.6406C7.5 23.9688 6.875 25.1406 6.25 25.9219C5.46875 27.0156 5 28.3438 5 29.75C5 33.2656 7.73438 36 11.25 36C14.6875 36 17.5 33.2656 17.5 29.75C17.5 28.3438 16.9531 27.0156 16.1719 26C15.5469 25.1406 15 23.9688 15 22.6406V9.75C15 7.71875 13.2812 6 11.25 6ZM2.5 9.75C2.5 4.98438 6.40625 1 11.25 1C16.0156 1 20 4.98438 20 9.75V22.6406C20 22.6406 20 22.6406 20 22.7188C20 22.7188 20.0781 22.7969 20.0781 22.875C21.5625 24.8281 22.5 27.1719 22.5 29.75C22.5 36 17.4219 41 11.25 41C5 41 0 36 0 29.75C0 27.1719 0.859375 24.8281 2.34375 22.875C2.42188 22.7969 2.42188 22.7188 2.42188 22.7188C2.42188 22.6406 2.5 22.6406 2.5 22.6406V9.75ZM15 29.75C15 31.8594 13.2812 33.5 11.25 33.5C9.14062 33.5 7.5 31.8594 7.5 29.75C7.5 28.1875 8.51562 26.7812 10 26.2344V22.25C10 21.625 10.5469 21 11.25 21C11.875 21 12.5 21.625 12.5 22.25V26.2344C13.9062 26.7812 15 28.1875 15 29.75Z" fill="white"/>
</svg>
