<svg width="16" height="16" viewBox="0 0 16 16" fill="none" xmlns="http://www.w3.org/2000/svg">
<path d="M14 13.5H7.33331C7.05998 13.5 6.83331 13.2733 6.83331 13C6.83331 12.7267 7.05998 12.5 7.33331 12.5H14C14.2733 12.5 14.5 12.7267 14.5 13C14.5 13.2733 14.2733 13.5 14 13.5Z" fill="#8A99AA"/>
<path d="M14 8.83337H7.33331C7.05998 8.83337 6.83331 8.60671 6.83331 8.33337C6.83331 8.06004 7.05998 7.83337 7.33331 7.83337H14C14.2733 7.83337 14.5 8.06004 14.5 8.33337C14.5 8.60671 14.2733 8.83337 14 8.83337Z" fill="#8A99AA"/>
<path d="M14 4.16663H7.33331C7.05998 4.16663 6.83331 3.93996 6.83331 3.66663C6.83331 3.39329 7.05998 3.16663 7.33331 3.16663H14C14.2733 3.16663 14.5 3.39329 14.5 3.66663C14.5 3.93996 14.2733 4.16663 14 4.16663Z" fill="#8A99AA"/>
<path d="M2.66665 4.83329C2.53998 4.83329 2.41331 4.78663 2.31331 4.68663L1.64665 4.01996C1.45331 3.82663 1.45331 3.50663 1.64665 3.31329C1.83998 3.11996 2.15998 3.11996 2.35331 3.31329L2.66665 3.62663L4.31331 1.97996C4.50665 1.78663 4.82665 1.78663 5.01998 1.97996C5.21331 2.17329 5.21331 2.49329 5.01998 2.68663L3.01998 4.68663C2.91998 4.78663 2.79331 4.83329 2.66665 4.83329Z" fill="#8A99AA"/>
<path d="M2.66665 9.50004C2.53998 9.50004 2.41331 9.45338 2.31331 9.35338L1.64665 8.68671C1.45331 8.49338 1.45331 8.17338 1.64665 7.98004C1.83998 7.78671 2.15998 7.78671 2.35331 7.98004L2.66665 8.29338L4.31331 6.64671C4.50665 6.45338 4.82665 6.45338 5.01998 6.64671C5.21331 6.84004 5.21331 7.16004 5.01998 7.35338L3.01998 9.35338C2.91998 9.45338 2.79331 9.50004 2.66665 9.50004Z" fill="#8A99AA"/>
<path d="M2.66665 14.1667C2.53998 14.1667 2.41331 14.12 2.31331 14.02L1.64665 13.3533C1.45331 13.16 1.45331 12.84 1.64665 12.6467C1.83998 12.4533 2.15998 12.4533 2.35331 12.6467L2.66665 12.96L4.31331 11.3133C4.50665 11.12 4.82665 11.12 5.01998 11.3133C5.21331 11.5067 5.21331 11.8267 5.01998 12.02L3.01998 14.02C2.91998 14.12 2.79331 14.1667 2.66665 14.1667Z" fill="#8A99AA"/>
</svg>
