<svg width="24" height="19" viewBox="0 0 24 19" fill="none" xmlns="http://www.w3.org/2000/svg">
<path d="M12.25 0.75C15.375 0.75 17.9141 2.19531 19.75 3.91406C21.5859 5.59375 22.7969 7.625 23.3828 9.03125C23.5 9.34375 23.5 9.69531 23.3828 10.0078C22.7969 11.375 21.5859 13.4062 19.75 15.125C17.9141 16.8438 15.375 18.25 12.25 18.25C9.08594 18.25 6.54688 16.8438 4.71094 15.125C2.875 13.4062 1.66406 11.375 1.07812 10.0078C0.960938 9.69531 0.960938 9.34375 1.07812 9.03125C1.66406 7.625 2.875 5.59375 4.71094 3.91406C6.54688 2.19531 9.08594 0.75 12.25 0.75ZM6.625 9.5C6.625 11.5312 7.67969 13.3672 9.4375 14.3828C11.1562 15.3984 13.3047 15.3984 15.0625 14.3828C16.7812 13.3672 17.875 11.5312 17.875 9.5C17.875 7.50781 16.7812 5.67188 15.0625 4.65625C13.3047 3.64062 11.1562 3.64062 9.4375 4.65625C7.67969 5.67188 6.625 7.50781 6.625 9.5ZM12.25 7C12.25 6.72656 12.1719 6.49219 12.0938 6.21875C12.0156 6.02344 12.1719 5.75 12.4062 5.75C13.9688 5.82812 15.4141 6.92188 15.8438 8.5625C16.3906 10.5547 15.2188 12.5859 13.1875 13.1328C11.1953 13.6797 9.125 12.4688 8.61719 10.4766C8.53906 10.2031 8.5 9.92969 8.5 9.69531C8.46094 9.46094 8.73438 9.30469 8.92969 9.38281C9.20312 9.46094 9.4375 9.5 9.75 9.5C11.1172 9.5 12.25 8.40625 12.25 7Z" fill="#0496FF"/>
</svg>
