<svg width="18" height="14" viewBox="0 0 18 14" fill="none" xmlns="http://www.w3.org/2000/svg">
<path d="M9.4375 0.8125C11.7812 0.8125 13.6855 1.89648 15.0625 3.18555C16.4395 4.44531 17.3477 5.96875 17.7871 7.02344C17.875 7.25781 17.875 7.52148 17.7871 7.75586C17.3477 8.78125 16.4395 10.3047 15.0625 11.5938C13.6855 12.8828 11.7812 13.9375 9.4375 13.9375C7.06445 13.9375 5.16016 12.8828 3.7832 11.5938C2.40625 10.3047 1.49805 8.78125 1.05859 7.75586C0.970703 7.52148 0.970703 7.25781 1.05859 7.02344C1.49805 5.96875 2.40625 4.44531 3.7832 3.18555C5.16016 1.89648 7.06445 0.8125 9.4375 0.8125ZM5.21875 7.375C5.21875 8.89844 6.00977 10.2754 7.32812 11.0371C8.61719 11.7988 10.2285 11.7988 11.5469 11.0371C12.8359 10.2754 13.6562 8.89844 13.6562 7.375C13.6562 5.88086 12.8359 4.50391 11.5469 3.74219C10.2285 2.98047 8.61719 2.98047 7.32812 3.74219C6.00977 4.50391 5.21875 5.88086 5.21875 7.375ZM9.4375 5.5C9.4375 5.29492 9.37891 5.11914 9.32031 4.91406C9.26172 4.76758 9.37891 4.5625 9.55469 4.5625C10.7266 4.62109 11.8105 5.44141 12.1328 6.67188C12.543 8.16602 11.6641 9.68945 10.1406 10.0996C8.64648 10.5098 7.09375 9.60156 6.71289 8.10742C6.6543 7.90234 6.625 7.69727 6.625 7.52148C6.5957 7.3457 6.80078 7.22852 6.94727 7.28711C7.15234 7.3457 7.32812 7.375 7.5625 7.375C8.58789 7.375 9.4375 6.55469 9.4375 5.5Z" fill="#2662F0"/>
</svg>
