<svg xmlns="http://www.w3.org/2000/svg" width="23.25" height="15.5" viewBox="0 0 23.25 15.5">
  <path id="_8530610_eye_icon" data-name="8530610_eye_icon" d="M11.626,67.229a4.478,4.478,0,0,0-1.261.2,2.236,2.236,0,0,1,.292,1.09,2.26,2.26,0,0,1-2.26,2.26,2.236,2.236,0,0,1-1.09-.292,4.509,4.509,0,1,0,4.319-3.26ZM23.11,71.161A12.946,12.946,0,0,0,11.626,64,12.948,12.948,0,0,0,.141,71.161a1.306,1.306,0,0,0,0,1.178A12.946,12.946,0,0,0,11.626,79.5,12.948,12.948,0,0,0,23.11,72.339a1.306,1.306,0,0,0,0-1.178Zm-11.485,6.4a10.98,10.98,0,0,1-9.6-5.812,10.98,10.98,0,0,1,9.6-5.812,10.98,10.98,0,0,1,9.6,5.813A10.979,10.979,0,0,1,11.626,77.563Z" transform="translate(-0.001 -64)"/>
</svg>
