<svg width="40" height="40" viewBox="0 0 40 40" fill="none" xmlns="http://www.w3.org/2000/svg">
<circle cx="20" cy="20" r="20" fill="#45AA7B"/>
<path fill-rule="evenodd" clip-rule="evenodd" d="M28.614 13.649C28.7137 13.7363 28.7951 13.8426 28.8534 13.9616C28.9117 14.0807 28.9457 14.2101 28.9536 14.3424C28.9614 14.4747 28.9428 14.6073 28.8989 14.7324C28.8551 14.8574 28.7868 14.9726 28.698 15.071L18.184 26.74C18.0948 26.8388 17.9868 26.9188 17.8663 26.9754C17.7458 27.0319 17.6152 27.0638 17.4822 27.0692C17.3492 27.0746 17.2165 27.0534 17.0918 27.0068C16.9671 26.9603 16.8529 26.8893 16.756 26.798L10.672 21.071C10.4895 20.8967 10.379 20.6603 10.3623 20.4085C10.3456 20.1567 10.424 19.9078 10.582 19.711C10.6673 19.6043 10.7733 19.516 10.8937 19.4516C11.0142 19.3871 11.1464 19.3478 11.2825 19.336C11.4186 19.3243 11.5556 19.3402 11.6853 19.383C11.815 19.4258 11.9347 19.4945 12.037 19.585L16.757 23.831C16.9541 24.0084 17.2135 24.1002 17.4783 24.0864C17.7431 24.0725 17.9915 23.954 18.169 23.757L27.212 13.73C27.388 13.5348 27.6338 13.4168 27.8962 13.4015C28.1586 13.3861 28.4164 13.4747 28.614 13.648V13.649Z" fill="white"/>
</svg>
