<svg width="40" height="40" viewBox="0 0 40 40" fill="none" xmlns="http://www.w3.org/2000/svg">
<circle cx="20" cy="20" r="20" fill="#F6F6F6"/>
<path d="M13.8985 13.855C13.8059 13.7174 13.9734 12.8229 16.118 12.33C18.2627 11.837 18.8772 12.6084 18.8218 12.8176M13.8985 13.855C13.8985 13.855 13.9198 13.897 13.9698 13.961M13.8985 13.855L13.9698 13.961M13.9698 13.961L14.382 14.5732L16.5401 23.7642C16.817 24.9434 17.9949 25.6771 19.1754 25.4058C19.2053 25.3989 19.2349 25.3914 19.2643 25.3834L20.2505 20.3126L18.6715 13.5882C18.6715 13.5882 18.7228 13.27 18.7772 13.0106M13.9698 13.961C14.1775 14.2267 14.8804 14.8724 16.611 14.4746C18.2162 14.1056 18.6569 13.3624 18.7772 13.0106M18.7772 13.0106C18.8178 12.8918 18.8218 12.8176 18.8218 12.8176M18.7772 13.0106C18.7921 12.9392 18.8074 12.8722 18.8218 12.8176" stroke="#8A99AA"/>
<path d="M15.5006 18.7307C16.9539 18.9286 18.051 18.8428 19.5144 17.6833" stroke="#8A99AA" stroke-linecap="round"/>
<path d="M21.0921 14.1252C21.0596 13.9357 21.6617 13.0702 24.162 13.5687C26.6624 14.0672 26.945 15.1743 26.7871 15.369M21.0921 14.1252C21.0921 14.1252 21.16 15.5699 23.6636 16.069C26.1671 16.5682 26.7871 15.369 26.7871 15.369M21.0921 14.1252C21.1583 14.5113 21.2615 15.1138 21.2615 15.1138L19.1734 25.8506C18.9055 27.2282 19.8012 28.5632 21.1775 28.8376V28.8376C22.563 29.1138 23.9089 28.2108 24.1786 26.8241L26.262 16.1118C26.262 16.1118 26.5961 15.6045 26.7871 15.369" stroke="#8A99AA"/>
<path d="M20.3475 20.7482C21.7889 21.6479 22.9889 22.0788 25.0863 21.5492" stroke="#8A99AA" stroke-linecap="round"/>
</svg>
