<svg width="40" height="40" viewBox="0 0 40 40" fill="none" xmlns="http://www.w3.org/2000/svg">
<circle cx="20" cy="20" r="20" fill="#FFF3DF"/>
<path d="M27.5 30H12.5C11.1215 30 10 28.8785 10 27.5V12.5C10 11.1215 11.1215 10 12.5 10H27.5C28.8785 10 30 11.1215 30 12.5V27.5C30 28.8785 28.8785 30 27.5 30ZM12.5 11C11.673 11 11 11.673 11 12.5V27.5C11 28.327 11.673 29 12.5 29H27.5C28.327 29 29 28.327 29 27.5V12.5C29 11.673 28.327 11 27.5 11H12.5Z" fill="#F6B651"/>
<path d="M12.5 14.5C12.3674 14.5 12.2402 14.4473 12.1464 14.3536C12.0527 14.2598 12 14.1326 12 14V12.5C12 12.3674 12.0527 12.2402 12.1464 12.1464C12.2402 12.0527 12.3674 12 12.5 12H14C14.1326 12 14.2598 12.0527 14.3536 12.1464C14.4473 12.2402 14.5 12.3674 14.5 12.5C14.5 12.6326 14.4473 12.7598 14.3536 12.8536C14.2598 12.9473 14.1326 13 14 13H13V14C13 14.1326 12.9473 14.2598 12.8536 14.3536C12.7598 14.4473 12.6326 14.5 12.5 14.5ZM27.5 14.5C27.3674 14.5 27.2402 14.4473 27.1464 14.3536C27.0527 14.2598 27 14.1326 27 14V13H26C25.8674 13 25.7402 12.9473 25.6464 12.8536C25.5527 12.7598 25.5 12.6326 25.5 12.5C25.5 12.3674 25.5527 12.2402 25.6464 12.1464C25.7402 12.0527 25.8674 12 26 12H27.5C27.6326 12 27.7598 12.0527 27.8536 12.1464C27.9473 12.2402 28 12.3674 28 12.5V14C28 14.1326 27.9473 14.2598 27.8536 14.3536C27.7598 14.4473 27.6326 14.5 27.5 14.5ZM14 28H12.5C12.3674 28 12.2402 27.9473 12.1464 27.8536C12.0527 27.7598 12 27.6326 12 27.5V26C12 25.8674 12.0527 25.7402 12.1464 25.6464C12.2402 25.5527 12.3674 25.5 12.5 25.5C12.6326 25.5 12.7598 25.5527 12.8536 25.6464C12.9473 25.7402 13 25.8674 13 26V27H14C14.1326 27 14.2598 27.0527 14.3536 27.1464C14.4473 27.2402 14.5 27.3674 14.5 27.5C14.5 27.6326 14.4473 27.7598 14.3536 27.8536C14.2598 27.9473 14.1326 28 14 28ZM27.5 28H26C25.8674 28 25.7402 27.9473 25.6464 27.8536C25.5527 27.7598 25.5 27.6326 25.5 27.5C25.5 27.3674 25.5527 27.2402 25.6464 27.1464C25.7402 27.0527 25.8674 27 26 27H27V26C27 25.8674 27.0527 25.7402 27.1464 25.6464C27.2402 25.5527 27.3674 25.5 27.5 25.5C27.6326 25.5 27.7598 25.5527 27.8536 25.6464C27.9473 25.7402 28 25.8674 28 26V27.5C28 27.6326 27.9473 27.7598 27.8536 27.8536C27.7598 27.9473 27.6326 28 27.5 28ZM20.5 14.5H19.5C19.3674 14.5 19.2402 14.4473 19.1464 14.3536C19.0527 14.2598 19 14.1326 19 14C19 13.8674 19.0527 13.7402 19.1464 13.6464C19.2402 13.5527 19.3674 13.5 19.5 13.5H20.5C20.6326 13.5 20.7598 13.5527 20.8536 13.6464C20.9473 13.7402 21 13.8674 21 14C21 14.1326 20.9473 14.2598 20.8536 14.3536C20.7598 14.4473 20.6326 14.5 20.5 14.5ZM20.25 16.5H19.75C19.6174 16.5 19.4902 16.4473 19.3964 16.3536C19.3027 16.2598 19.25 16.1326 19.25 16C19.25 15.8674 19.3027 15.7402 19.3964 15.6464C19.4902 15.5527 19.6174 15.5 19.75 15.5H20.25C20.3826 15.5 20.5098 15.5527 20.6036 15.6464C20.6973 15.7402 20.75 15.8674 20.75 16C20.75 16.1326 20.6973 16.2598 20.6036 16.3536C20.5098 16.4473 20.3826 16.5 20.25 16.5ZM20.25 18.5H19.75C19.6174 18.5 19.4902 18.4473 19.3964 18.3536C19.3027 18.2598 19.25 18.1326 19.25 18C19.25 17.8674 19.3027 17.7402 19.3964 17.6464C19.4902 17.5527 19.6174 17.5 19.75 17.5H20.25C20.3826 17.5 20.5098 17.5527 20.6036 17.6464C20.6973 17.7402 20.75 17.8674 20.75 18C20.75 18.1326 20.6973 18.2598 20.6036 18.3536C20.5098 18.4473 20.3826 18.5 20.25 18.5ZM20.25 20.5H19.75C19.6174 20.5 19.4902 20.4473 19.3964 20.3536C19.3027 20.2598 19.25 20.1326 19.25 20C19.25 19.8674 19.3027 19.7402 19.3964 19.6464C19.4902 19.5527 19.6174 19.5 19.75 19.5H20.25C20.3826 19.5 20.5098 19.5527 20.6036 19.6464C20.6973 19.7402 20.75 19.8674 20.75 20C20.75 20.1326 20.6973 20.2598 20.6036 20.3536C20.5098 20.4473 20.3826 20.5 20.25 20.5ZM20.25 22.5H19.75C19.6174 22.5 19.4902 22.4473 19.3964 22.3536C19.3027 22.2598 19.25 22.1326 19.25 22C19.25 21.8674 19.3027 21.7402 19.3964 21.6464C19.4902 21.5527 19.6174 21.5 19.75 21.5H20.25C20.3826 21.5 20.5098 21.5527 20.6036 21.6464C20.6973 21.7402 20.75 21.8674 20.75 22C20.75 22.1326 20.6973 22.2598 20.6036 22.3536C20.5098 22.4473 20.3826 22.5 20.25 22.5ZM20.25 24.5H19.75C19.6174 24.5 19.4902 24.4473 19.3964 24.3536C19.3027 24.2598 19.25 24.1326 19.25 24C19.25 23.8674 19.3027 23.7402 19.3964 23.6464C19.4902 23.5527 19.6174 23.5 19.75 23.5H20.25C20.3826 23.5 20.5098 23.5527 20.6036 23.6464C20.6973 23.7402 20.75 23.8674 20.75 24C20.75 24.1326 20.6973 24.2598 20.6036 24.3536C20.5098 24.4473 20.3826 24.5 20.25 24.5ZM20.5 26.5H19.5C19.3674 26.5 19.2402 26.4473 19.1464 26.3536C19.0527 26.2598 19 26.1326 19 26C19 25.8674 19.0527 25.7402 19.1464 25.6464C19.2402 25.5527 19.3674 25.5 19.5 25.5H20.5C20.6326 25.5 20.7598 25.5527 20.8536 25.6464C20.9473 25.7402 21 25.8674 21 26C21 26.1326 20.9473 26.2598 20.8536 26.3536C20.7598 26.4473 20.6326 26.5 20.5 26.5ZM22.5 17.5C22.4343 17.5 22.3693 17.4871 22.3086 17.462C22.248 17.4369 22.1928 17.4001 22.1464 17.3537C22.0526 17.26 21.9998 17.1329 21.9998 17.0002C21.9997 16.8676 22.0523 16.7404 22.146 16.6466C22.2397 16.5528 22.3669 16.5001 22.4995 16.5C23.197 16.4985 24.5 16.277 24.5 15.75C24.5 15.021 23.6025 15 23.5 15C23.3674 15 23.2402 14.9473 23.1464 14.8536C23.0527 14.7598 23 14.6326 23 14.5C23 14.3674 23.0527 14.2402 23.1464 14.1464C23.2402 14.0527 23.3674 14 23.5 14C24.1915 14 25.5 14.3655 25.5 15.75C25.5 17.451 22.807 17.5 22.5 17.5ZM22.5 20C22.4343 20 22.3693 19.9871 22.3086 19.962C22.248 19.9369 22.1928 19.9001 22.1464 19.8537C22.0526 19.76 21.9998 19.6329 21.9998 19.5002C21.9997 19.3676 22.0523 19.2404 22.146 19.1466C22.2397 19.0528 22.3669 19.0001 22.4995 19C23.392 18.9985 24.795 18.7295 24.9725 18.157C24.991 18.0932 25.022 18.0336 25.0637 17.9819C25.1055 17.9302 25.1571 17.8873 25.2156 17.8558C25.2741 17.8243 25.3383 17.8047 25.4044 17.7983C25.4706 17.7919 25.5374 17.7987 25.6008 17.8184C25.6643 17.838 25.7232 17.8702 25.7741 17.9129C25.8251 17.9556 25.867 18.008 25.8974 18.0671C25.9278 18.1262 25.9461 18.1908 25.9513 18.257C25.9565 18.3233 25.9484 18.3899 25.9275 18.453C25.462 19.9565 22.802 20 22.5 20ZM22.5 22.5C22.4343 22.5 22.3693 22.4871 22.3086 22.462C22.248 22.4369 22.1928 22.4001 22.1464 22.3537C22.0526 22.26 21.9998 22.1329 21.9998 22.0002C21.9997 21.8676 22.0523 21.7404 22.146 21.6466C22.2397 21.5528 22.3669 21.5001 22.4995 21.5C23.6965 21.499 25.4035 21.1715 25.4955 20.561C25.5185 20.4329 25.5905 20.3188 25.6963 20.243C25.8021 20.1672 25.9332 20.1356 26.0619 20.1549C26.1906 20.1743 26.3067 20.243 26.3855 20.3466C26.4643 20.4501 26.4996 20.5803 26.484 20.7095C26.228 22.414 23.12 22.5005 22.4995 22.5005L22.5 22.5ZM22.5 25C22.4343 25 22.3693 24.9871 22.3086 24.962C22.248 24.9369 22.1928 24.9001 22.1464 24.8537C22.0526 24.76 21.9998 24.6329 21.9998 24.5002C21.9997 24.3676 22.0523 24.2404 22.146 24.1466C22.2397 24.0528 22.3669 24.0001 22.4995 24C23.2245 23.999 24.516 23.81 24.8965 23.308C24.9362 23.2557 24.9857 23.2117 25.0424 23.1785C25.0991 23.1453 25.1617 23.1236 25.2268 23.1147C25.2918 23.1057 25.358 23.1096 25.4215 23.1263C25.485 23.1429 25.5447 23.1718 25.597 23.2115C25.6493 23.2512 25.6933 23.3007 25.7265 23.3574C25.7597 23.4141 25.7814 23.4767 25.7903 23.5418C25.7993 23.6068 25.7954 23.673 25.7787 23.7365C25.7621 23.8 25.7332 23.8597 25.6935 23.912C24.8915 24.9695 22.7425 25 22.5 25ZM17.49 17.5C17.183 17.5 14.49 17.451 14.49 15.75C14.49 14.3655 15.7985 14 16.49 14C16.6226 14 16.7498 14.0527 16.8436 14.1464C16.9373 14.2402 16.99 14.3674 16.99 14.5C16.99 14.6326 16.9373 14.7598 16.8436 14.8536C16.7498 14.9473 16.6226 15 16.49 15C16.325 15.0015 15.49 15.0465 15.49 15.75C15.49 16.28 16.7925 16.5 17.49 16.5C17.6226 16.5 17.7498 16.5527 17.8436 16.6464C17.9373 16.7402 17.99 16.8674 17.99 17C17.99 17.1326 17.9373 17.2598 17.8436 17.3536C17.7498 17.4473 17.6226 17.5 17.49 17.5ZM17.49 20C17.188 20 14.528 19.9565 14.0625 18.453C14.0416 18.3899 14.0335 18.3233 14.0387 18.257C14.0439 18.1908 14.0622 18.1262 14.0926 18.0671C14.123 18.008 14.1649 17.9556 14.2159 17.9129C14.2668 17.8702 14.3257 17.838 14.3892 17.8184C14.4526 17.7987 14.5194 17.7919 14.5856 17.7983C14.6517 17.8047 14.7159 17.8243 14.7744 17.8558C14.8329 17.8873 14.8845 17.9302 14.9263 17.9819C14.968 18.0336 14.999 18.0932 15.0175 18.157C15.1955 18.732 16.598 19 17.49 19C17.6226 19 17.7498 19.0527 17.8436 19.1464C17.9373 19.2402 17.99 19.3674 17.99 19.5C17.99 19.6326 17.9373 19.7598 17.8436 19.8536C17.7498 19.9473 17.6226 20 17.49 20ZM17.49 22.5C16.8695 22.5 13.7615 22.4135 13.5055 20.709C13.4937 20.6432 13.4952 20.5757 13.5099 20.5105C13.5247 20.4452 13.5523 20.3836 13.5913 20.3293C13.6302 20.275 13.6797 20.229 13.7367 20.1941C13.7938 20.1592 13.8572 20.1361 13.9233 20.1262C13.9895 20.1162 14.0569 20.1197 14.1217 20.1363C14.1865 20.1529 14.2472 20.1823 14.3004 20.2228C14.3537 20.2633 14.3982 20.314 14.4314 20.372C14.4647 20.43 14.486 20.4941 14.494 20.5605C14.586 21.171 16.293 21.4985 17.49 21.4995C17.6226 21.4996 17.7498 21.5523 17.8435 21.6461C17.9372 21.7399 17.9898 21.8671 17.9897 21.9998C17.9897 22.1324 17.9369 22.2595 17.8431 22.3532C17.7493 22.447 17.6221 22.4996 17.4895 22.4995L17.49 22.5ZM17.49 25C17.2475 25 15.0985 24.9695 14.2965 23.9125C14.2184 23.8067 14.185 23.6745 14.2037 23.5443C14.2224 23.4142 14.2916 23.2966 14.3964 23.2171C14.5011 23.1376 14.633 23.1026 14.7633 23.1196C14.8937 23.1366 15.0122 23.2043 15.093 23.308C15.4735 23.8095 16.765 23.999 17.49 24C17.6226 24.0001 17.7498 24.0528 17.8435 24.1466C17.9372 24.2404 17.9898 24.3676 17.9897 24.5002C17.9897 24.6329 17.9369 24.76 17.8431 24.8537C17.7493 24.9475 17.6226 25.0001 17.49 25Z" fill="#F6B651"/>
</svg>
