<svg width="40" height="40" viewBox="0 0 40 40" fill="none" xmlns="http://www.w3.org/2000/svg">
<circle cx="20" cy="20" r="20" fill="#EAFFF5"/>
<path d="M15.5 13V13C14.1193 13 13 14.1193 13 15.5V20C13 22.7614 15.2386 25 18 25V25M15.5 13C15.5 13.5523 15.9477 14 16.5 14C17.0523 14 17.5 13.5523 17.5 13C17.5 12.4477 17.0523 12 16.5 12C15.9477 12 15.5 12.4477 15.5 13ZM21 13C21 13.5523 20.5523 14 20 14C19.4477 14 19 13.5523 19 13C19 12.4477 19.4477 12 20 12C20.5523 12 21 12.4477 21 13ZM21 13V13C22.1046 13 23 13.8954 23 15V20C23 22.7614 20.7614 25 18 25V25M18 25C18 30 26.5 30.5 26.5 25V21" stroke="#45AA7B"/>
<path d="M28 19.5C28 20.3284 27.3284 21 26.5 21C25.6716 21 25 20.3284 25 19.5C25 18.6716 25.6716 18 26.5 18C27.3284 18 28 18.6716 28 19.5Z" stroke="#45AA7B"/>
<path d="M26.5 19.49H26.51V19.5H26.5V19.49Z" stroke="#45AA7B" stroke-linejoin="round"/>
</svg>
