<svg width="40" height="40" viewBox="0 0 40 40" fill="none" xmlns="http://www.w3.org/2000/svg">
<circle cx="20" cy="20" r="20" fill="#EAFFF5"/>
<path d="M16 13.75C15.59 13.75 15.25 13.41 15.25 13V10C15.25 9.59 15.59 9.25 16 9.25C16.41 9.25 16.75 9.59 16.75 10V13C16.75 13.41 16.41 13.75 16 13.75Z" fill="#45AA7B"/>
<path d="M24 13.75C23.59 13.75 23.25 13.41 23.25 13V10C23.25 9.59 23.59 9.25 24 9.25C24.41 9.25 24.75 9.59 24.75 10V13C24.75 13.41 24.41 13.75 24 13.75Z" fill="#45AA7B"/>
<path d="M24 30.75H16C12.35 30.75 10.25 28.65 10.25 25V16.5C10.25 12.85 12.35 10.75 16 10.75H24C27.65 10.75 29.75 12.85 29.75 16.5V25C29.75 28.65 27.65 30.75 24 30.75ZM16 12.25C13.14 12.25 11.75 13.64 11.75 16.5V25C11.75 27.86 13.14 29.25 16 29.25H24C26.86 29.25 28.25 27.86 28.25 25V16.5C28.25 13.64 26.86 12.25 24 12.25H16Z" fill="#45AA7B"/>
<path d="M24 19.75H16C15.59 19.75 15.25 19.41 15.25 19C15.25 18.59 15.59 18.25 16 18.25H24C24.41 18.25 24.75 18.59 24.75 19C24.75 19.41 24.41 19.75 24 19.75Z" fill="#45AA7B"/>
<path d="M20 24.75H16C15.59 24.75 15.25 24.41 15.25 24C15.25 23.59 15.59 23.25 16 23.25H20C20.41 23.25 20.75 23.59 20.75 24C20.75 24.41 20.41 24.75 20 24.75Z" fill="#45AA7B"/>
</svg>
