<svg width="40" height="40" viewBox="0 0 40 40" fill="none" xmlns="http://www.w3.org/2000/svg">
<circle cx="20" cy="20" r="20" fill="#F6F6F6"/>
<path d="M16.5 23.5C15.5 23.5 13.5 24.5 13.5 27" stroke="#8A99AA" stroke-linecap="round"/>
<path d="M23.5 23.5C24.5 23.5 26.5 24.5 26.5 27" stroke="#8A99AA" stroke-linecap="round"/>
<path d="M22 23.5L20.1818 25.6818M19.5 26.5L20.1818 25.6818M18 23.5L20.1818 25.6818" stroke="#8A99AA" stroke-linecap="round"/>
<path d="M16.5 13.5C15 14.5 13.5 19.8 17.5 21" stroke="#8A99AA" stroke-linecap="round"/>
<path d="M23.5 13.5C25 14.5 26.5 19.8 22.5 21" stroke="#8A99AA" stroke-linecap="round"/>
<path d="M17.1242 17.5C17.0434 17.8169 17 18.1525 17 18.5C17 20.433 18.3431 22.5 20 22.5C21.6569 22.5 23 20.433 23 18.5C23 18.1525 22.9566 17.8169 22.8758 17.5" stroke="#8A99AA" stroke-linecap="round"/>
<path d="M21 15.5C20.5604 15.9396 19.3476 17.1524 16.6819 17.4388" stroke="#8A99AA" stroke-linecap="round"/>
<path d="M20.5 16.5C21 17 21.5 17.5 23 17.5" stroke="#8A99AA" stroke-linecap="round"/>
<path d="M23.85 11.9752C23.9328 11.8317 23.8839 11.6477 23.7374 11.5703C22.587 10.9624 21.3042 10.6436 20 10.6436C18.6958 10.6436 17.413 10.9624 16.2626 11.5703C16.1161 11.6477 16.0672 11.8317 16.15 11.9752L17.5282 14.3623C17.6111 14.5058 17.7942 14.554 17.9427 14.4806C18.5812 14.1651 19.2851 14 20 14C20.7149 14 21.4188 14.1651 22.0573 14.4806C22.2058 14.554 22.3889 14.5058 22.4718 14.3623L23.85 11.9752Z" stroke="#8A99AA"/>
<path d="M16.25 25.25V26.75M15.5 26H17" stroke="#8A99AA" stroke-linecap="round"/>
</svg>
