<svg width="16" height="16" viewBox="0 0 16 16" fill="none" xmlns="http://www.w3.org/2000/svg">
<path d="M5.33331 3.83337C5.05998 3.83337 4.83331 3.60671 4.83331 3.33337V1.33337C4.83331 1.06004 5.05998 0.833374 5.33331 0.833374C5.60665 0.833374 5.83331 1.06004 5.83331 1.33337V3.33337C5.83331 3.60671 5.60665 3.83337 5.33331 3.83337Z" fill="#8A99AA"/>
<path d="M10.6667 3.83337C10.3934 3.83337 10.1667 3.60671 10.1667 3.33337V1.33337C10.1667 1.06004 10.3934 0.833374 10.6667 0.833374C10.94 0.833374 11.1667 1.06004 11.1667 1.33337V3.33337C11.1667 3.60671 10.94 3.83337 10.6667 3.83337Z" fill="#8A99AA"/>
<path d="M10.6667 15.1667H5.33333C2.9 15.1667 1.5 13.7667 1.5 11.3334V5.66671C1.5 3.23337 2.9 1.83337 5.33333 1.83337H10.6667C13.1 1.83337 14.5 3.23337 14.5 5.66671V11.3334C14.5 13.7667 13.1 15.1667 10.6667 15.1667ZM5.33333 2.83337C3.42667 2.83337 2.5 3.76004 2.5 5.66671V11.3334C2.5 13.24 3.42667 14.1667 5.33333 14.1667H10.6667C12.5733 14.1667 13.5 13.24 13.5 11.3334V5.66671C13.5 3.76004 12.5733 2.83337 10.6667 2.83337H5.33333Z" fill="#8A99AA"/>
<path d="M10.6666 7.83337H5.33331C5.05998 7.83337 4.83331 7.60671 4.83331 7.33337C4.83331 7.06004 5.05998 6.83337 5.33331 6.83337H10.6666C10.94 6.83337 11.1666 7.06004 11.1666 7.33337C11.1666 7.60671 10.94 7.83337 10.6666 7.83337Z" fill="#8A99AA"/>
<path d="M7.99998 11.1666H5.33331C5.05998 11.1666 4.83331 10.94 4.83331 10.6666C4.83331 10.3933 5.05998 10.1666 5.33331 10.1666H7.99998C8.27331 10.1666 8.49998 10.3933 8.49998 10.6666C8.49998 10.94 8.27331 11.1666 7.99998 11.1666Z" fill="#8A99AA"/>
</svg>
