<svg width="40" height="40" viewBox="0 0 40 40" fill="none" xmlns="http://www.w3.org/2000/svg">
<circle cx="20" cy="20" r="20" fill="#EBEBFF"/>
<path d="M14 13.5C14 12.5572 14 12.0858 14.2929 11.7929C14.5858 11.5 15.0572 11.5 16 11.5H24C24.9428 11.5 25.4142 11.5 25.7071 11.7929C26 12.0858 26 12.5572 26 13.5V26.5C26 27.4428 26 27.9142 25.7071 28.2071C25.4142 28.5 24.9428 28.5 24 28.5H16C15.0572 28.5 14.5858 28.5 14.2929 28.2071C14 27.9142 14 27.4428 14 26.5V13.5Z" stroke="#5458FB"/>
<circle cx="17" cy="15" r="1" stroke="#5458FB"/>
<circle cx="23" cy="15" r="1" stroke="#5458FB"/>
<circle cx="17" cy="20" r="1" stroke="#5458FB"/>
<circle cx="23" cy="20" r="1" stroke="#5458FB"/>
<circle cx="17" cy="25" r="1" stroke="#5458FB"/>
<circle cx="23" cy="25" r="1" stroke="#5458FB"/>
<path d="M20 14V26" stroke="#5458FB" stroke-linecap="round"/>
</svg>
