<svg width="40" height="40" viewBox="0 0 40 40" fill="none" xmlns="http://www.w3.org/2000/svg">
<circle cx="20" cy="20" r="20" fill="#FFF1E6"/>
<path d="M20 30.75C14.8 30.75 10.58 26.52 10.58 21.33C10.58 16.14 14.8 11.9 20 11.9C21.07 11.9 22.11 12.05 23.11 12.36C23.51 12.48 23.73 12.9 23.61 13.3C23.49 13.7 23.07 13.92 22.67 13.8C21.82 13.54 20.92 13.4 20 13.4C15.63 13.4 12.08 16.95 12.08 21.32C12.08 25.69 15.63 29.24 20 29.24C24.37 29.24 27.92 25.69 27.92 21.32C27.92 19.74 27.46 18.22 26.59 16.92C26.36 16.58 26.45 16.11 26.8 15.88C27.14 15.65 27.61 15.74 27.84 16.09C28.88 17.64 29.43 19.45 29.43 21.33C29.42 26.52 25.2 30.75 20 30.75Z" fill="#EF903F"/>
<path d="M24.13 14.07C23.92 14.07 23.71 13.98 23.56 13.81L20.67 10.49C20.4 10.18 20.43 9.7 20.74 9.43C21.05 9.16 21.53 9.19 21.8 9.5L24.69 12.82C24.96 13.13 24.93 13.61 24.62 13.88C24.49 14.01 24.31 14.07 24.13 14.07Z" fill="#EF903F"/>
<path d="M20.76 16.53C20.53 16.53 20.3 16.42 20.15 16.22C19.91 15.89 19.98 15.42 20.31 15.17L23.68 12.71C24.01 12.46 24.48 12.54 24.73 12.87C24.98 13.2 24.9 13.67 24.57 13.92L21.2 16.39C21.07 16.49 20.92 16.53 20.76 16.53Z" fill="#EF903F"/>
</svg>
