<svg width="40" height="40" viewBox="0 0 40 40" fill="none" xmlns="http://www.w3.org/2000/svg">
<path d="M10 13.75C10 17.3438 11.875 20.625 15 22.4219C18.0469 24.2188 21.875 24.2188 25 22.4219C28.0469 20.625 30 17.3438 30 13.75C30 10.2344 28.0469 6.95312 25 5.15625C21.875 3.35938 18.0469 3.35938 15 5.15625C11.875 6.95312 10 10.2344 10 13.75ZM30.5469 5H35C37.7344 5 40 7.26562 40 10V35C40 37.8125 37.7344 40 35 40H5C2.1875 40 0 37.8125 0 35V10C0 7.26562 2.1875 5 5 5H9.375C11.875 1.95312 15.7031 0 20 0C24.2188 0 28.0469 1.95312 30.5469 5ZM23.125 17.5C23.125 19.2969 21.7188 20.625 20 20.625C18.2031 20.625 16.875 19.2969 16.875 17.5C16.875 15.7812 18.2031 14.4531 19.9219 14.375L22.5781 8.28125C22.8125 7.65625 23.5938 7.34375 24.2188 7.65625C24.8438 7.89062 25.1562 8.67188 24.8438 9.29688L22.2656 15.3906C22.7344 15.9375 23.125 16.7188 23.125 17.5Z" fill="white"/>
</svg>
