<svg width="16" height="16" viewBox="0 0 16 16" fill="none" xmlns="http://www.w3.org/2000/svg">
<path d="M13.18 7.50004H10.4866C9.14665 7.50004 8.49998 6.90671 8.49998 5.68004V2.65337C8.49998 1.42671 9.15331 0.833374 10.4866 0.833374H13.18C14.52 0.833374 15.1666 1.42671 15.1666 2.65337V5.67337C15.1666 6.90671 14.5133 7.50004 13.18 7.50004ZM10.4866 1.83337C9.59331 1.83337 9.49998 2.08671 9.49998 2.65337V5.67337C9.49998 6.24671 9.59331 6.49337 10.4866 6.49337H13.18C14.0733 6.49337 14.1666 6.24004 14.1666 5.67337V2.65337C14.1666 2.08004 14.0733 1.83337 13.18 1.83337H10.4866Z" fill="#8A99AA"/>
<path d="M13.18 15.1667H10.4866C9.14665 15.1667 8.49998 14.5134 8.49998 13.18V10.4867C8.49998 9.14671 9.15331 8.50004 10.4866 8.50004H13.18C14.52 8.50004 15.1666 9.15337 15.1666 10.4867V13.18C15.1666 14.5134 14.5133 15.1667 13.18 15.1667ZM10.4866 9.50004C9.69998 9.50004 9.49998 9.70004 9.49998 10.4867V13.18C9.49998 13.9667 9.69998 14.1667 10.4866 14.1667H13.18C13.9666 14.1667 14.1666 13.9667 14.1666 13.18V10.4867C14.1666 9.70004 13.9666 9.50004 13.18 9.50004H10.4866Z" fill="#8A99AA"/>
<path d="M5.51331 7.50004H2.81998C1.47998 7.50004 0.833313 6.90671 0.833313 5.68004V2.65337C0.833313 1.42671 1.48665 0.833374 2.81998 0.833374H5.51331C6.85331 0.833374 7.49998 1.42671 7.49998 2.65337V5.67337C7.49998 6.90671 6.84665 7.50004 5.51331 7.50004ZM2.81998 1.83337C1.92665 1.83337 1.83331 2.08671 1.83331 2.65337V5.67337C1.83331 6.24671 1.92665 6.49337 2.81998 6.49337H5.51331C6.40665 6.49337 6.49998 6.24004 6.49998 5.67337V2.65337C6.49998 2.08004 6.40665 1.83337 5.51331 1.83337H2.81998Z" fill="#8A99AA"/>
<path d="M5.51331 15.1667H2.81998C1.47998 15.1667 0.833313 14.5134 0.833313 13.18V10.4867C0.833313 9.14671 1.48665 8.50004 2.81998 8.50004H5.51331C6.85331 8.50004 7.49998 9.15337 7.49998 10.4867V13.18C7.49998 14.5134 6.84665 15.1667 5.51331 15.1667ZM2.81998 9.50004C2.03331 9.50004 1.83331 9.70004 1.83331 10.4867V13.18C1.83331 13.9667 2.03331 14.1667 2.81998 14.1667H5.51331C6.29998 14.1667 6.49998 13.9667 6.49998 13.18V10.4867C6.49998 9.70004 6.29998 9.50004 5.51331 9.50004H2.81998Z" fill="#8A99AA"/>
</svg>
