<svg width="20" height="19" viewBox="0 0 20 19" fill="none" xmlns="http://www.w3.org/2000/svg">
<path d="M0 2C0 1.33594 0.546875 0.75 1.25 0.75H18.75C19.4141 0.75 20 1.33594 20 2C20 2.70312 19.4141 3.25 18.75 3.25V15.75C19.4141 15.75 20 16.3359 20 17C20 17.7031 19.4141 18.25 18.75 18.25H1.25C0.546875 18.25 0 17.7031 0 17C0 16.3359 0.546875 15.75 1.25 15.75V3.25C0.546875 3.25 0 2.70312 0 2ZM10 3.25C9.64844 3.25 9.375 3.5625 9.375 3.875V5.125H6.25C5.89844 5.125 5.625 5.4375 5.625 5.75C5.625 6.10156 5.89844 6.375 6.25 6.375H9.375V8.25H5C4.64844 8.25 4.375 8.5625 4.375 8.875C4.375 9.22656 4.64844 9.5 5 9.5H9.375V12.2734L7.38281 11.4922C7.14844 11.4141 6.95312 11.375 6.71875 11.375H6.64062C5.74219 11.375 5 12.1562 5 13.0547C5 13.4453 5.11719 13.7969 5.35156 14.1094L6.05469 15.0078C6.44531 15.4766 6.99219 15.75 7.61719 15.75H12.3438C12.9688 15.75 13.5547 15.4766 13.9062 15.0078L14.6094 14.1094C14.8438 13.7969 15 13.4453 15 13.0547C15 12.1562 14.2188 11.375 13.3203 11.375H13.2422C13.0078 11.375 12.8125 11.4141 12.5781 11.4922L10.625 12.2734V9.5H15C15.3125 9.5 15.625 9.22656 15.625 8.875C15.625 8.5625 15.3125 8.25 15 8.25H10.625V6.375H13.75C14.0625 6.375 14.375 6.10156 14.375 5.75C14.375 5.4375 14.0625 5.125 13.75 5.125H10.625V3.875C10.625 3.5625 10.3125 3.25 10 3.25ZM8.125 13.25C8.4375 13.25 8.75 13.5625 8.75 13.875C8.75 14.2266 8.4375 14.5 8.125 14.5C7.77344 14.5 7.5 14.2266 7.5 13.875C7.5 13.5625 7.77344 13.25 8.125 13.25ZM11.25 13.875C11.25 13.5625 11.5234 13.25 11.875 13.25C12.1875 13.25 12.5 13.5625 12.5 13.875C12.5 14.2266 12.1875 14.5 11.875 14.5C11.5234 14.5 11.25 14.2266 11.25 13.875Z" fill="#717171"/>
</svg>
